<svg id="Logo" xmlns="http://www.w3.org/2000/svg" viewBox="0 0 92.91 68.79"><defs><style>.cls-1{fill:#fe0;}.cls-2{fill:#181716;}.cls-3{fill:#00797f;}</style></defs><title>Zeichenfläche 2</title><path class="cls-1" d="M59.45,10.62,46.68,23.08V49.59H72.23V23.08Zm7.74,34.14L51.5,44.68V25.32l8-7.81,8,7.81Z"/><path class="cls-2" d="M14.37,27.88V21.94h1.2v1.19H18v4.75Zm2.37-3.56H15.57v2.36h1.17Z"/><path class="cls-2" d="M20.31,27.88V23.15H19.13V21.94h2.38v4.74H22.7v1.2Z"/><path class="cls-2" d="M23.88,27.88V21.94h3.57v3.57H25.08v1.17h2.37v1.2Zm2.37-4.73H25.08v1.16h1.17Z"/><path class="cls-2" d="M28.63,23.15V21.94h1.2v1.21Zm0,4.73V24.31h1.2v3.57Z"/><path class="cls-2" d="M31,27.88V21.94h1.2v1.19h2.38v4.75Zm2.37-3.56H32.21v2.36h1.17Z"/><path class="cls-2" d="M35.76,27.88V21.94h3.58v3.57H37v1.17h2.38v1.2Zm2.37-4.73H37v1.16h1.17Z"/><path class="cls-2" d="M42.89,27.88V23.15H41.72v4.73h-1.2V21.94h2.39v1.19h1.18v4.75Z"/><path class="cls-2" d="M18.11,54.45l0-2.77h.57c1,0,1.51.38,1.5,1.32s-.58,1.45-1.57,1.44ZM18.48,52l0,2.16h.17c.77,0,1.19-.32,1.2-1.14s-.39-1-1.13-1Z"/><path class="cls-2" d="M20.9,52.08a.22.22,0,0,1-.22-.23.22.22,0,0,1,.23-.23.23.23,0,0,1,.23.23A.23.23,0,0,1,20.9,52.08Zm.15,2.38h-.33l0-1.92h.32Z"/><path class="cls-2" d="M23,53.58H21.87c0,.44.24.65.58.65a.7.7,0,0,0,.51-.17l.09.23a.81.81,0,0,1-.63.23c-.55,0-.87-.32-.87-1s.4-1,.84-1,.64.28.64.76A1.39,1.39,0,0,1,23,53.58Zm-1.11-.25h.84V53.2c0-.27-.13-.42-.36-.42S21.9,53,21.88,53.33Z"/><path class="cls-2" d="M26,54.5l-.29-.89h-1l-.31.89h-.36l1.05-2.75h.28l1,2.77Zm-.77-2.31h0l-.41,1.15h.81Z"/><path class="cls-2" d="M27.08,54c0,.19.06.24.19.24l.13,0,0,.23a.54.54,0,0,1-.26.06c-.26,0-.4-.12-.4-.49l0-2.38.32,0Z"/><path class="cls-2" d="M28.11,54c0,.18.06.24.18.24a.88.88,0,0,0,.14,0l0,.23a.56.56,0,0,1-.27.06c-.25,0-.39-.12-.39-.5V51.68l.33,0Z"/><path class="cls-2" d="M29,52.13a.21.21,0,0,1-.22-.23.22.22,0,0,1,.23-.23.23.23,0,0,1,.23.23A.23.23,0,0,1,29,52.13Zm.15,2.39h-.33l0-1.92h.32Z"/><path class="cls-2" d="M30.49,53.46h.16v-.15c0-.34-.13-.46-.37-.47a.72.72,0,0,0-.48.18l-.12-.24a.94.94,0,0,1,.66-.22c.42,0,.64.24.64.75v.82c0,.16,0,.35,0,.4h-.31v-.22h0a.6.6,0,0,1-.53.26.51.51,0,0,1-.52-.55C29.61,53.62,30,53.45,30.49,53.46Zm.16.65v-.42h-.18c-.37,0-.54.1-.54.3a.28.28,0,0,0,.27.3A.59.59,0,0,0,30.65,54.11Z"/><path class="cls-2" d="M32.76,54.54V53.4c0-.36-.11-.54-.38-.54a.74.74,0,0,0-.51.2v1.47h-.32V52.61h.3v.22h0a.8.8,0,0,1,.6-.26c.4,0,.63.26.62.78v1.19Z"/><path class="cls-2" d="M34.87,52.84,34,54.26h1l0,.27H33.52v-.21l.94-1.43h-.88v-.27h1.29Z"/><path class="cls-2" d="M37.15,52.92h-.46v1.65h-.32V52.92H36.1v-.23l.26,0v-.32a.57.57,0,0,1,.62-.64.53.53,0,0,1,.25.06l0,.28A.44.44,0,0,0,37,52c-.18,0-.28.09-.28.36v.32h.5Z"/><path class="cls-2" d="M39.05,54.58h-.3v-.22h0a.67.67,0,0,1-.59.26c-.4,0-.61-.24-.61-.78V52.65h.32v1.14c0,.38.11.54.37.55a.64.64,0,0,0,.49-.21V52.66h.32ZM38,52.31a.21.21,0,0,1-.2-.21.19.19,0,0,1,.2-.2.19.19,0,0,1,.19.2A.2.2,0,0,1,38,52.31Zm.68,0a.2.2,0,0,1-.2-.21.19.19,0,0,1,.2-.2.19.19,0,0,1,.19.21A.19.19,0,0,1,38.65,52.31Z"/><path class="cls-2" d="M40.6,53a.38.38,0,0,0-.18,0,.46.46,0,0,0-.44.27v1.4h-.33l0-1.92H40V53h0a.5.5,0,0,1,.49-.32.74.74,0,0,1,.18,0Z"/><path class="cls-2" d="M42,51.86c0-.16,0-.22.14-.22h.36c.09,0,.09,0,.11,0,.1.22.17.44.28.66l.15.27a3.36,3.36,0,0,0,.49-.8c.06-.11.07-.16.19-.16h.2c.12,0,.14,0,.14.09v0c0,1-.07,1.75-.07,2.75,0,.08,0,.16-.1.16h-.4s-.07,0-.07-.11c0-.27,0-.63,0-.87,0-.08,0-.53,0-.7v-.07s-.05.05-.1.14a5.36,5.36,0,0,0-.28.52c-.06.14-.08.15-.11.15s-.09-.14-.16-.29l-.14-.36a2.19,2.19,0,0,0-.09-.22s0,.11,0,.33c0,.46,0,1.27,0,1.4v0c0,.05,0,.07-.15.07H42s-.06,0-.06-.09v-.15c0-.55,0-1.16,0-1.62S42,52.19,42,51.86Z"/><path class="cls-2" d="M44.76,51.78v2.83c0,.14,0,.12-.16.12h-.25c-.09,0-.11,0-.11-.19,0-.7,0-1.39,0-2.08,0-.2,0-.45,0-.67s0-.16.1-.16h.29C44.75,51.63,44.76,51.65,44.76,51.78Z"/><path class="cls-2" d="M45,51.79c0-.15,0-.16.15-.16h.14c.14,0,.12,0,.16.14.16.4.79,1.85.79,1.85l0-1.78c0-.11,0-.21.09-.21h.35c.07,0,.07,0,.07.06V52c0,.68,0,1.17,0,1.7v1c0,.09,0,.11-.08.11s-.3,0-.45-.05-.13,0-.17-.13c-.13-.28-.29-.68-.34-.78s-.26-.61-.26-.61v1.45c0,.1,0,.11-.08.11l-.36,0c-.07,0-.09,0-.09-.06s0-.25,0-.41c0-.52,0-1,0-1.57C45.05,52.39,45,52.09,45,51.79Z"/><path class="cls-2" d="M48.25,52.24h0c-.07,0-.07,0-.08.09,0,.34,0,.66,0,1s0,.88,0,1.33c0,.07,0,.08-.08.08h-.37s-.11,0-.11-.06c0-.26,0-1.23,0-2,0-.08,0-.28,0-.37s0-.05-.07-.05h-.36c-.08,0-.09,0-.09-.09v-.37c0-.12,0-.15.15-.15h1.33c.09,0,.09,0,.1.07v.1c0,.13,0,.24,0,.38s0,.06-.07.06Z"/><path class="cls-2" d="M49.76,53.5H48.67v-.26h1.09Z"/><path class="cls-2" d="M51.36,53.17h0a.65.65,0,0,1,.58.66c0,.43-.32.75-1.08.75h-.63V51.83h.59c.75,0,1,.27,1,.7A.63.63,0,0,1,51.36,53.17Zm-.54-1.05h-.24v.93h.24c.46,0,.68-.18.68-.51S51.3,52.12,50.82,52.12Zm.06,1.22h-.3v1h.28c.51,0,.71-.17.71-.48S51.31,53.34,50.88,53.34Z"/><path class="cls-2" d="M52.63,52.2A.21.21,0,0,1,52.4,52a.23.23,0,0,1,.23-.24.23.23,0,0,1,.23.24A.22.22,0,0,1,52.63,52.2Zm.16,2.39h-.33V52.67h.33Z"/><path class="cls-2" d="M53.7,54.12c0,.18.06.24.19.24a.31.31,0,0,0,.13,0l0,.23a.44.44,0,0,1-.26.06c-.25,0-.4-.11-.4-.49V51.76l.32,0Z"/><path class="cls-2" d="M55.24,52.63a.9.9,0,0,1,.36.07v-.94l.33,0v2.87h-.3v-.22h0a.63.63,0,0,1-.57.27c-.42,0-.74-.34-.74-1A.92.92,0,0,1,55.24,52.63Zm.36,1.51V53a.55.55,0,0,0-.34-.1c-.37,0-.62.2-.62.72s.24.71.53.71A.52.52,0,0,0,55.6,54.14Z"/><path class="cls-2" d="M58,54.59h-.3v-.22h0a.71.71,0,0,1-.59.27c-.4,0-.62-.25-.62-.78V52.67h.33V53.8c0,.38.11.55.37.55a.64.64,0,0,0,.49-.21V52.67H58Z"/><path class="cls-2" d="M59.82,54.59V53.45c0-.37-.11-.54-.38-.54a.74.74,0,0,0-.51.21v1.47h-.32V52.67h.3v.21h0a.77.77,0,0,1,.59-.26c.41,0,.63.26.63.78v1.19Z"/><path class="cls-2" d="M62.28,52.92H62a.61.61,0,0,1,.11.35.67.67,0,0,1-.75.65l-.16,0a.23.23,0,0,0-.16.19c0,.08.06.14.2.14h.39c.41,0,.64.17.64.51s-.35.7-1,.7c-.45,0-.72-.18-.72-.52a.52.52,0,0,1,.34-.48h0a.36.36,0,0,1-.12-.28.38.38,0,0,1,.23-.32h0a.6.6,0,0,1-.33-.57.65.65,0,0,1,.73-.65.88.88,0,0,1,.29.05h.66ZM61,54.51a.38.38,0,0,0-.2.34c0,.22.14.31.43.31.47,0,.67-.18.67-.38s-.1-.25-.32-.25H61.2Zm.34-1.62c-.22,0-.42.1-.42.38a.37.37,0,0,0,.41.38.36.36,0,0,0,.41-.38A.36.36,0,0,0,61.38,52.89Z"/><path class="cls-2" d="M64.82,52.88,63.9,54.3h1l0,.28H63.48v-.21L64.4,53h-.87v-.27h1.29Z"/><path class="cls-2" d="M66.82,54.59h-.3v-.22h0a.69.69,0,0,1-.59.27c-.4,0-.61-.25-.61-.78V52.67h.32V53.8c0,.38.11.55.37.55a.65.65,0,0,0,.5-.21V52.67h.32Z"/><path class="cls-2" d="M70.46,54.59h-.35V53.34H68.74v1.25h-.35V51.83h.35v1.22h1.37V51.83h.35Z"/><path class="cls-2" d="M71.89,53.52h.16v-.15c0-.33-.14-.46-.38-.46a.78.78,0,0,0-.48.17l-.12-.24a1.05,1.05,0,0,1,.66-.22c.42,0,.64.24.64.75v.82c0,.16,0,.35,0,.4h-.31v-.21h0a.62.62,0,0,1-.53.26.51.51,0,0,1-.52-.55C71,53.69,71.39,53.52,71.89,53.52Zm.16.65v-.42h-.19c-.36,0-.53.1-.53.31a.27.27,0,0,0,.27.29A.61.61,0,0,0,72.05,54.17Z"/><path class="cls-2" d="M74.45,54.59h-.3v-.22h0a.71.71,0,0,1-.59.27c-.4,0-.62-.25-.62-.78V52.67h.33V53.8c0,.38.11.55.37.55a.64.64,0,0,0,.49-.21V52.67h.33Z"/><path class="cls-2" d="M76,53.07a.63.63,0,0,0-.42-.17c-.21,0-.31.09-.31.2s.09.22.29.32l.14.08c.3.15.47.31.47.59s-.22.55-.69.55a.78.78,0,0,1-.57-.21l.12-.28a.61.61,0,0,0,.45.2c.25,0,.37-.09.37-.22s-.12-.25-.33-.37l-.14-.07c-.28-.15-.42-.31-.42-.57s.26-.5.62-.5a.8.8,0,0,1,.53.18Z"/><path class="cls-2" d="M77.89,53.7H76.77c0,.44.24.65.58.65a.69.69,0,0,0,.51-.18l.09.23a.78.78,0,0,1-.63.24c-.55,0-.87-.32-.87-1s.39-1,.83-1,.64.27.64.75A1.61,1.61,0,0,1,77.89,53.7Zm-1.12-.26h.84a.49.49,0,0,0,0-.12c0-.27-.14-.42-.37-.42S76.79,53.09,76.77,53.44Z"/><path class="cls-2" d="M34.61,17.69v2.37h-1.2V17.69H32.24v2.37H31V17.69H29.85V14.12h1.21v3.55h1.16V14.12h1.21v3.55H34.6V14.12h1.19v3.57Z"/><path class="cls-2" d="M37,15.32v-1.2h1.2v1.2Zm0,4.74V16.49h1.2v3.57Z"/><path class="cls-2" d="M41.73,16.5V15.32H40.56v4.74h-1.2V14.12h3.57V16.5Z"/><path class="cls-3" d="M23.39,34.35l-.55,0c-.63,0-1.2.12-1.17.83a2,2,0,0,0,.57,1.2c.73.9,1.51,1.52,2.2,2.46a4.87,4.87,0,0,1,1.17,2.94c0,.28,0,.59,0,1a5.2,5.2,0,0,1-1.54,3.63,3.48,3.48,0,0,1-1.67.63A3.43,3.43,0,0,1,20,46c-.3-.27-.56-.57-.86-.86a.3.3,0,0,1-.14-.24c0-.06,0-.11.06-.2.23-.47.55-1.45.82-1.88.16-.25.25-.37.35-.37a.53.53,0,0,1,.31.16,2.41,2.41,0,0,0,1.35.67.85.85,0,0,0,.84-.9,1.16,1.16,0,0,0-.3-.69c-.26-.36-.55-.72-.79-1.09-1.07-1.56-2.92-2.64-3-5.36a4.85,4.85,0,0,1,0-.66A4,4,0,0,1,22.32,31a6.17,6.17,0,0,1,1.71.16.45.45,0,0,1,.34.36,12.06,12.06,0,0,1,.26,1.9c0,.57,0,.91-.47.93Z"/><path class="cls-3" d="M38.17,40.81a4.58,4.58,0,0,1-.11,1.44c-.68,2.38-1.94,4.07-4.75,4.2A6.28,6.28,0,0,1,27,42.24a12.15,12.15,0,0,1-.6-3.45A8.33,8.33,0,0,1,27,35.05a6.4,6.4,0,0,1,5.45-4.32A5.53,5.53,0,0,1,37.86,35a4.61,4.61,0,0,1,.07.5c0,.27,0,.4-.23.43-.46.05-.88.13-1.38.17s-.89.11-1.35.13c-.25,0-.31-.47-.47-.7a2.31,2.31,0,0,0-1.77-.94c-1.72.08-3,2-2.86,4.07.11,2.4,1.28,4.28,3.43,4.19.67,0,1.69-.7,1.71-1.45,0-.44,0-.55.45-.59.81-.08,1.44-.13,2.14-.25h.27C38.1,40.51,38.16,40.59,38.17,40.81Z"/><path class="cls-3" d="M48.19,44.8c0,.4-.18.54-.45.55-.61,0-1.49.16-1.93.18h-.23c-.21,0-.36,0-.42-.53-.13-1.23-.33-3.07-.4-4.63v-.15c0-.29-.06-.37-.42-.36h-.17a11.84,11.84,0,0,0-1.24.17c-.34,0-.44,0-.42.37.08,1.8.22,3.66.26,4.56v.18c0,.48,0,.64-.31.67s-.79.08-1.21.1a8.44,8.44,0,0,1-1.13,0c-.42-.05-.64-.21-.68-.76-.33-4.57-.52-8.83-.75-13.88,0-.46,0-.88.29-.89.82,0,1.66-.06,2.47-.09h.09c.12,0,.19,0,.22.17.06.48.07.79.11,1.18.15,2.13.23,3.27.33,4.81,0,.63.09.63.64.61L44.18,37c.37,0,.4-.09.39-.35,0-.77-.09-1.6-.13-2.37a31.2,31.2,0,0,1,0-3.55c0-.44,0-.44.34-.45.71-.05,1.51-.14,2.16-.16.3,0,.55,0,.57.34.2,4.55.48,9.31.71,14.12Z"/><path class="cls-3" d="M55.26,44.84c0,.22-.12.29-.31.32a12.24,12.24,0,0,1-2,.22c-.88,0-1.78,0-2.68.08l-.57,0c-.27,0-.42-.07-.44-.38-.17-3.74-.15-8.07-.34-12.25,0-.76,0-1.53-.06-2.19,0-.38,0-.42.36-.55a5.48,5.48,0,0,1,1.54-.27c.23,0,.45,0,.68,0s.47.14.49.49c.1,1.89.14,2.83.25,4.65.14,2.66.2,4.13.37,6.57a.22.22,0,0,0,.24.19h.15l.36,0c.48,0,1-.13,1.45-.15.29,0,.3.27.32.62v.09C55.09,43.13,55.23,44,55.26,44.84Z"/><path class="cls-3" d="M63.12,44.9a.51.51,0,0,1-.55-.42c-.1-.43-.2-.85-.29-1.28-.2-1-.39-1.9-.64-2.75a.5.5,0,0,0-.52-.39A10,10,0,0,0,60,40.2c-.23,0-.34.14-.39.41a34.54,34.54,0,0,0-.3,3.84c0,.36,0,.62-.38.64s-.8,0-1.34,0l-1.18.07c-.25,0-.42,0-.43-.24a8.53,8.53,0,0,1,.13-1.26c.58-5,1-8.57,1.29-12.94,0-.33.09-.69.15-1s.15-.36.48-.37c1.2-.06,2.34,0,3.5,0,.69,0,1,.05,1.13.76,1,4.6,2,9.14,2.78,13.64a5.46,5.46,0,0,1,.15.72c0,.22-.08.33-.39.34s-.88,0-1.3,0C63.67,44.83,63.41,44.89,63.12,44.9Zm-1.73-8.57v-.11A28.51,28.51,0,0,0,60.63,33c-.09-.28-.12-.48-.44-.46-.08,0-.19.16-.2.25-.18,1.26-.19,1.88-.29,3a4.8,4.8,0,0,0,0,.55c0,.27,0,.31.26.32h.56c.21,0,.4,0,.63-.05S61.4,36.52,61.39,36.33Z"/><path class="cls-3" d="M73.73,29.08c.1.65.14,1.49.17,2.15.17,2.85.38,5.5.51,8.18.16,3.54-.92,5.22-4.3,5.37a3.73,3.73,0,0,1-3.57-2.19,16.59,16.59,0,0,1-.85-5.33c-.08-1.65-.08-3.5-.15-4.86,0-.82,0-1.7,0-2.55v0c0-.33,0-.46.35-.5.62-.09,1.46-.22,2.09-.25.33,0,.41.16.43.6l.09,1.91c.09,2,.16,4.77.24,6.62.06,1.32.25,2.47,1.32,2.43s1-.73,1-1.85,0-2.05-.08-3c-.09-2-.26-4.06-.36-5.72,0-.22,0-.4,0-.53,0-.31.06-.4.49-.46.6-.07,1.64-.19,2.22-.21C73.45,28.83,73.7,28.84,73.73,29.08Z"/><path class="cls-3" d="M75.16,29.32c0-.64.08-.55.77-.65.27,0,.92-.06,1.18-.08s.19,0,.29,0c.33,0,.56,0,.63.41a8.47,8.47,0,0,1,.19,1.64l.32,7.1c0,.85.06,1.6.06,2.46s-.1.93-.67,1A13.34,13.34,0,0,1,76.14,41c-.21,0-.29-.16-.3-.43v-.15c-.14-3.14-.29-6.5-.53-9.62C75.26,30.37,75.18,29.76,75.16,29.32Zm3.44,14c0,.33,0,.66,0,1s-.1.38-.38.39-1.09.11-1.45.13-.85,0-.86-.33-.06-.82-.08-1.23c0-.16,0-.31,0-.47,0-.31.1-.44.36-.48.52-.06,1.41-.19,1.95-.22.32,0,.44.14.46.51S78.61,43.08,78.6,43.3Z"/></svg>