<svg xmlns="http://www.w3.org/2000/svg" viewBox="9626 32 216.158 72">
  <defs>
    <style>
      .cls-1 {
        fill: #4b4b4d;
      }

      .cls-2 {
        fill: #fff;
      }
    </style>
  </defs>
  <g id="Gruppe_460" data-name="Gruppe 460" transform="translate(9626 32)">
    <g id="Gruppe_458" data-name="Gruppe 458" transform="translate(0 17.704)">
      <path id="Pfad_415" data-name="Pfad 415" d="M130.021,50.5l-4.031,5.453L130.1,62.2h1.818l-4.268-6.323L131.6,50.5h-1.581Zm-5.611,11.7h1.581V50.5h-1.581Zm-5.928,0h1.581V50.5h-1.581ZM107.97,50.5v1.265h2.924V62.2h1.581V51.763h2.845l.158-1.265Zm-5.3,1.265,1.66,6.244h-3.24ZM107.022,62.2l-3.4-11.7h-1.976l-3.4,11.7H99.83l.79-3h3.952l.79,3ZM94.93,50.5H92.875L90.82,59.113,88.607,50.5H86.552l-.869,11.7h1.5l.316-5.216a39.643,39.643,0,0,0,.158-4.9l2.371,8.852h1.5l2.213-8.852c0,.869.079,2.529.237,4.9l.4,5.3h1.5ZM78.253,56.031H76.989V51.763H78.1a3.306,3.306,0,0,1,1.976.474,1.961,1.961,0,0,1,.632,1.581,2.026,2.026,0,0,1-.632,1.66,2.762,2.762,0,0,1-1.818.553M82.916,62.2,80.15,56.9a3.078,3.078,0,0,0,2.213-3.161c0-2.213-1.423-3.319-4.189-3.319H75.408v11.7h1.581V57.137h1.66l2.529,4.979h1.739ZM67.189,51.526a2.415,2.415,0,0,1,2.134,1.186,7.186,7.186,0,0,1,.711,3.636,6.989,6.989,0,0,1-.711,3.636,2.266,2.266,0,0,1-2.134,1.106q-2.845,0-2.845-4.742c0-3.24.948-4.821,2.845-4.821m0-1.265a4.182,4.182,0,0,0-2.371.711,4.645,4.645,0,0,0-1.581,2.055,8.6,8.6,0,0,0-.553,3.319,7.29,7.29,0,0,0,1.186,4.5,3.918,3.918,0,0,0,3.319,1.5,3.979,3.979,0,0,0,3.319-1.581,7.29,7.29,0,0,0,1.186-4.5,7.29,7.29,0,0,0-1.186-4.5,4.14,4.14,0,0,0-3.319-1.5M56.282,62.2V57.058h3.4V55.873h-3.4v-4.11h3.952l.158-1.186H54.7v11.7h1.581ZM50.354,50.5H48.932v6.4a17.863,17.863,0,0,0,.079,2.055c.079.711.079,1.265.158,1.66L44.98,50.578H42.925v11.7h1.423V56.505a41.167,41.167,0,0,0-.237-4.347L48.378,62.2h2.055V50.5ZM37.077,62.2h1.581V50.5H37.077Zm-13.12-6.165H22.692V51.763H23.8a3.306,3.306,0,0,1,1.976.474,1.961,1.961,0,0,1,.632,1.581,2.026,2.026,0,0,1-.632,1.66,2.926,2.926,0,0,1-1.818.553M28.541,62.2l-2.766-5.3a3.078,3.078,0,0,0,2.213-3.161c0-2.213-1.423-3.319-4.189-3.319H21.033v11.7h1.581V57.137h1.66L26.8,62.116h1.739ZM14.868,47.1a.816.816,0,1,0,.632.237,1.051,1.051,0,0,0-.632-.237m-3.24,0a.816.816,0,1,0,.632.237.778.778,0,0,0-.632-.237m5.3,3.4H15.342v8.14c0,1.66-.711,2.45-2.134,2.45s-2.134-.79-2.134-2.45V50.5H9.494v8.22a3.411,3.411,0,0,0,3.715,3.636,3.524,3.524,0,0,0,2.766-1.027,3.786,3.786,0,0,0,.948-2.608ZM2.381,62.2V57.058h3.4V55.873h-3.4v-4.11H6.332l.158-1.186H.8v11.7H2.381Z" transform="translate(-0.168 -27.579)"/>
      <path id="Pfad_416" data-name="Pfad 416" d="M107.723,22.637V23.9h2.924V34.334h1.581V23.981h2.845l.158-1.265h-7.508Zm-6.086,11.7V29.2h3.4V28.011h-3.4V23.9h3.952l.158-1.186h-5.69v11.7h1.581ZM92.707,23.9l1.66,6.244h-3.24Zm4.347,10.432-3.4-11.7H91.679l-3.4,11.7h1.581l.79-3H94.6l.79,3Zm-11.7,0v-11.7H83.776v4.9H79.508v-4.9H77.928v11.7h1.581V28.881h4.268v5.453ZM71.763,22.4a3.935,3.935,0,0,0-2.292.711,4.241,4.241,0,0,0-1.581,2.055,8.094,8.094,0,0,0-.553,3.319,8.094,8.094,0,0,0,.553,3.319,4.241,4.241,0,0,0,1.581,2.055,4.141,4.141,0,0,0,5.374-.632l-.79-.948a6.088,6.088,0,0,1-1.027.711,2.566,2.566,0,0,1-3.24-.948A6.365,6.365,0,0,1,69,28.407a6.2,6.2,0,0,1,.79-3.636,2.345,2.345,0,0,1,2.134-1.106,2.188,2.188,0,0,1,1.027.237,3.307,3.307,0,0,1,.948.632l.79-.948a4.311,4.311,0,0,0-1.344-.869,5.11,5.11,0,0,0-1.581-.316m-10.986,0a4.023,4.023,0,0,0-1.739.4A2.324,2.324,0,0,0,57.853,23.9a2.777,2.777,0,0,0-.4,1.581,2.755,2.755,0,0,0,.711,1.976A6.452,6.452,0,0,0,60.54,28.8a4.822,4.822,0,0,1,1.739.948,1.859,1.859,0,0,1,.474,1.344,2.207,2.207,0,0,1-.632,1.581,2.153,2.153,0,0,1-1.581.553,2.706,2.706,0,0,1-1.423-.316,3.31,3.31,0,0,1-1.265-.869L56.9,33.07a4.893,4.893,0,0,0,3.636,1.5,3.85,3.85,0,0,0,1.976-.474,3.366,3.366,0,0,0,1.818-3.082,3.674,3.674,0,0,0-.4-1.66,2.753,2.753,0,0,0-1.027-1.106,7.145,7.145,0,0,0-1.739-.79,8.316,8.316,0,0,1-1.423-.632,1.866,1.866,0,0,1-.711-.632,1.593,1.593,0,0,1-.237-.869,1.573,1.573,0,0,1,.553-1.265,1.859,1.859,0,0,1,1.344-.474,3.276,3.276,0,0,1,1.265.237,3.451,3.451,0,0,1,1.185.79l.79-.869a5.358,5.358,0,0,0-1.423-1.027,5.257,5.257,0,0,0-1.739-.316m-11.46.237v11.7h5.69l.158-1.344H50.9V22.637Zm-9.01,0v11.7H46l.158-1.344H41.888V22.637Zm-9.405,0v11.7h5.849V33.149H32.483v-4.11H36.04V27.853H32.483V23.981h4.031l.158-1.186H30.9ZM23.789,22.4a4.023,4.023,0,0,0-1.739.4A2.324,2.324,0,0,0,20.865,23.9a2.777,2.777,0,0,0-.4,1.581,2.755,2.755,0,0,0,.711,1.976A6.452,6.452,0,0,0,23.552,28.8a4.822,4.822,0,0,1,1.739.948,1.859,1.859,0,0,1,.474,1.344,2.207,2.207,0,0,1-.632,1.581,2.153,2.153,0,0,1-1.581.553,2.706,2.706,0,0,1-1.423-.316,3.31,3.31,0,0,1-1.265-.869L20,32.912a4.893,4.893,0,0,0,3.636,1.5,3.85,3.85,0,0,0,1.976-.474,3.366,3.366,0,0,0,1.818-3.082,3.674,3.674,0,0,0-.4-1.66A2.753,2.753,0,0,0,26,28.09a7.145,7.145,0,0,0-1.739-.79,8.316,8.316,0,0,1-1.423-.632,1.866,1.866,0,0,1-.711-.632,1.593,1.593,0,0,1-.237-.869,1.573,1.573,0,0,1,.553-1.265,1.859,1.859,0,0,1,1.344-.474,3.276,3.276,0,0,1,1.265.237,3.451,3.451,0,0,1,1.186.79l.79-.869a5.358,5.358,0,0,0-1.423-1.027c-.553,0-1.106-.158-1.818-.158m-12.013.237v11.7h5.849V33.149H13.357v-4.11h3.557V27.853H13.357V23.981h4.031l.158-1.186H11.776ZM4.663,22.4a4.828,4.828,0,0,0-2.371.632,4.368,4.368,0,0,0-1.66,2.055A8.691,8.691,0,0,0,0,28.486,7.39,7.39,0,0,0,1.186,33.07a3.918,3.918,0,0,0,3.319,1.5,5.918,5.918,0,0,0,3.4-1.027V27.932H4.5L4.663,29.2H6.481v3.636a3.755,3.755,0,0,1-1.9.474A2.424,2.424,0,0,1,2.45,32.2a7.127,7.127,0,0,1-.711-3.715,6.133,6.133,0,0,1,.869-3.636,2.475,2.475,0,0,1,2.213-1.106,2.639,2.639,0,0,1,1.186.237,6.362,6.362,0,0,1,1.106.711l.869-.869a7.423,7.423,0,0,0-1.423-.948,4.471,4.471,0,0,0-1.9-.474" transform="translate(0 -22.4)"/>
    </g>
    <path id="Pfad_417" data-name="Pfad 417" class="cls-1" d="M218.584,0,194.242,23.473l-4.742,13.2,7.034,14.068L218.584,72l37.3-35.96Z" transform="translate(-39.73)"/>
    <rect id="Rechteck_407" data-name="Rechteck 407" class="cls-2" width="7.745" height="36.04" transform="translate(189.761 17.941)"/>
    <g id="Gruppe_459" data-name="Gruppe 459" transform="translate(147.478 17.941)">
      <path id="Pfad_418" data-name="Pfad 418" class="cls-2" d="M214.5,34.16l6.323-3.715c-4.347-5.453-8.615-7.745-15.807-7.745-11.065,0-18.415,7.745-18.415,18.336,0,10.116,7.587,17.783,18.02,17.783,10.2,0,18.257-7.113,18.257-17.071v-1.9H205.015v5.532h9.721c-1.344,4.9-4.584,6.955-9.563,6.955-6.718,0-11.065-5.3-11.065-11.618.079-4.584,2.055-8.22,6.481-10.2a9.145,9.145,0,0,1,3.557-.948c4.347-.079,7.587,1.106,10.353,4.584" transform="translate(-186.6 -22.7)"/>
    </g>
  </g>
</svg>
