<svg version="1.1" xmlns="http://www.w3.org/2000/svg" xmlns:xlink="http://www.w3.org/1999/xlink" width="657.70361328125" height="625" viewBox=" 148 -35 657.70361328125 625"><defs><style type="text/css" xmlns="http://www.w3.org/1999/xhtml"><![CDATA[.blocklySvg {background-color: #fff;outline: none;overflow: hidden;}.blocklyWidgetDiv {display: none;position: absolute;z-index: 999;}.blocklyTooltipDiv {background-color: #ffffc7;border: 1px solid #ddc;box-shadow: 4px 4px 20px 1px rgba(0,0,0,.15);color: #000;display: none;font-family: sans-serif;font-size: 9pt;opacity: 0.9;padding: 2px;position: absolute;z-index: 1000;}.blocklyResizeSE {cursor: se-resize;fill: #aaa;}.blocklyResizeSW {cursor: sw-resize;fill: #aaa;}.blocklyResizeLine {stroke: #888;stroke-width: 1;}.blocklyHighlightedConnectionPath {fill: none;stroke: #fc3;stroke-width: 4px;}.blocklyPathLight {fill: none;stroke-linecap: round;stroke-width: 1;}.blocklySelected>.blocklyPath {stroke: #fc3;stroke-width: 3px;}.blocklySelected>.blocklyPathLight {display: none;}.blocklyDragging>.blocklyPath,.blocklyDragging>.blocklyPathLight {fill-opacity: .8;stroke-opacity: .8;}.blocklyDragging>.blocklyPathDark {display: none;}.blocklyDisabled>.blocklyPath {fill-opacity: .5;stroke-opacity: .5;}.blocklyDisabled>.blocklyPathLight,.blocklyDisabled>.blocklyPathDark {display: none;}.blocklyText {cursor: default;fill: #fff;font-family: sans-serif;font-size: 11pt;}.blocklyNonEditableText>text {pointer-events: none;}.blocklyNonEditableText>rect,.blocklyEditableText>rect {fill: #fff;fill-opacity: .6;}.blocklyNonEditableText>text,.blocklyEditableText>text {fill: #000;}.blocklyEditableText:hover>rect {stroke: #fff;stroke-width: 2;}.blocklyBubbleText {fill: #000;}.blocklySvg text {user-select: none;-moz-user-select: none;-webkit-user-select: none;cursor: inherit;}.blocklyHidden {display: none;}.blocklyFieldDropdown:not(.blocklyHidden) {display: block;}.blocklyIconGroup {cursor: default;}.blocklyIconGroup:not(:hover),.blocklyIconGroupReadonly {opacity: .6;}.blocklyIconShape {fill: #00f;stroke: #fff;stroke-width: 1px;}.blocklyIconSymbol {fill: #fff;}.blocklyMinimalBody {margin: 0;padding: 0;}.blocklyCommentTextarea {background-color: #ffc;border: 0;margin: 0;padding: 2px;resize: none;}.blocklyHtmlInput {border: none;border-radius: 4px;font-family: sans-serif;height: 100%;margin: 0;outline: none;padding: 0 1px;width: 100%}.blocklyMainBackground {stroke-width: 1;stroke: #c6c6c6;}.blocklyMutatorBackground {fill: #fff;stroke: #ddd;stroke-width: 1;}.blocklyFlyoutBackground {fill: #ddd;fill-opacity: .8;}.blocklyScrollbarBackground {opacity: 0;}.blocklyScrollbarKnob {fill: #ccc;}.blocklyScrollbarBackground:hover+.blocklyScrollbarKnob,.blocklyScrollbarKnob:hover {fill: #bbb;}.blocklyZoom>image {opacity: .4;}.blocklyZoom>image:hover {opacity: .6;}.blocklyZoom>image:active {opacity: .8;}.blocklyFlyout .blocklyScrollbarKnob {fill: #bbb;}.blocklyFlyout .blocklyScrollbarBackground:hover+.blocklyScrollbarKnob,.blocklyFlyout .blocklyScrollbarKnob:hover {fill: #aaa;}.blocklyInvalidInput {background: #faa;}.blocklyAngleCircle {stroke: #444;stroke-width: 1;fill: #ddd;fill-opacity: .8;}.blocklyAngleMarks {stroke: #444;stroke-width: 1;}.blocklyAngleGauge {fill: #f88;fill-opacity: .8;}.blocklyAngleLine {stroke: #f00;stroke-width: 2;stroke-linecap: round;}.blocklyContextMenu {border-radius: 4px;}.blocklyDropdownMenu {padding: 0 !important;}.blocklyWidgetDiv .goog-option-selected .goog-menuitem-checkbox,.blocklyWidgetDiv .goog-option-selected .goog-menuitem-icon {background: url(<<<PATH>>>/sprites.png) no-repeat -48px -16px !important;}.blocklyToolboxDiv {background-color: #ddd;overflow-x: visible;overflow-y: auto;position: absolute;}.blocklyTreeRoot {padding: 4px 0;}.blocklyTreeRoot:focus {outline: none;}.blocklyTreeRow {height: 22px;line-height: 22px;margin-bottom: 3px;padding-right: 8px;white-space: nowrap;}.blocklyHorizontalTree {float: left;margin: 1px 5px 8px 0;}.blocklyHorizontalTreeRtl {float: right;margin: 1px 0 8px 5px;}.blocklyToolboxDiv[dir="RTL"] .blocklyTreeRow {margin-left: 8px;}.blocklyTreeRow:not(.blocklyTreeSelected):hover {background-color: #e4e4e4;}.blocklyTreeSeparator {border-bottom: solid #e5e5e5 1px;height: 0;margin: 5px 0;}.blocklyTreeSeparatorHorizontal {border-right: solid #e5e5e5 1px;width: 0;padding: 5px 0;margin: 0 5px;}.blocklyTreeIcon {background-image: url(<<<PATH>>>/sprites.png);height: 16px;vertical-align: middle;width: 16px;}.blocklyTreeIconClosedLtr {background-position: -32px -1px;}.blocklyTreeIconClosedRtl {background-position: 0px -1px;}.blocklyTreeIconOpen {background-position: -16px -1px;}.blocklyTreeSelected>.blocklyTreeIconClosedLtr {background-position: -32px -17px;}.blocklyTreeSelected>.blocklyTreeIconClosedRtl {background-position: 0px -17px;}.blocklyTreeSelected>.blocklyTreeIconOpen {background-position: -16px -17px;}.blocklyTreeIconNone,.blocklyTreeSelected>.blocklyTreeIconNone {background-position: -48px -1px;}.blocklyTreeLabel {cursor: default;font-family: sans-serif;font-size: 16px;padding: 0 3px;vertical-align: middle;}.blocklyTreeSelected .blocklyTreeLabel {color: #fff;}.blocklyWidgetDiv .goog-palette {outline: none;cursor: default;}.blocklyWidgetDiv .goog-palette-table {border: 1px solid #666;border-collapse: collapse;}.blocklyWidgetDiv .goog-palette-cell {height: 13px;width: 15px;margin: 0;border: 0;text-align: center;vertical-align: middle;border-right: 1px solid #666;font-size: 1px;}.blocklyWidgetDiv .goog-palette-colorswatch {position: relative;height: 13px;width: 15px;border: 1px solid #666;}.blocklyWidgetDiv .goog-palette-cell-hover .goog-palette-colorswatch {border: 1px solid #FFF;}.blocklyWidgetDiv .goog-palette-cell-selected .goog-palette-colorswatch {border: 1px solid #000;color: #fff;}.blocklyWidgetDiv .goog-menu {background: #fff;border-color: #ccc #666 #666 #ccc;border-style: solid;border-width: 1px;cursor: default;font: normal 13px Arial, sans-serif;margin: 0;outline: none;padding: 4px 0;position: absolute;overflow-y: auto;overflow-x: hidden;max-height: 100%;z-index: 20000;}.blocklyWidgetDiv .goog-menuitem {color: #000;font: normal 13px Arial, sans-serif;list-style: none;margin: 0;padding: 4px 7em 4px 28px;white-space: nowrap;}.blocklyWidgetDiv .goog-menuitem.goog-menuitem-rtl {padding-left: 7em;padding-right: 28px;}.blocklyWidgetDiv .goog-menu-nocheckbox .goog-menuitem,.blocklyWidgetDiv .goog-menu-noicon .goog-menuitem {padding-left: 12px;}.blocklyWidgetDiv .goog-menu-noaccel .goog-menuitem {padding-right: 20px;}.blocklyWidgetDiv .goog-menuitem-content {color: #000;font: normal 13px Arial, sans-serif;}.blocklyWidgetDiv .goog-menuitem-disabled .goog-menuitem-accel,.blocklyWidgetDiv .goog-menuitem-disabled .goog-menuitem-content {color: #ccc !important;}.blocklyWidgetDiv .goog-menuitem-disabled .goog-menuitem-icon {opacity: 0.3;-moz-opacity: 0.3;filter: alpha(opacity=30);}.blocklyWidgetDiv .goog-menuitem-highlight,.blocklyWidgetDiv .goog-menuitem-hover {background-color: #d6e9f8;border-color: #d6e9f8;border-style: dotted;border-width: 1px 0;padding-bottom: 3px;padding-top: 3px;}.blocklyWidgetDiv .goog-menuitem-checkbox,.blocklyWidgetDiv .goog-menuitem-icon {background-repeat: no-repeat;height: 16px;left: 6px;position: absolute;right: auto;vertical-align: middle;width: 16px;}.blocklyWidgetDiv .goog-menuitem-rtl .goog-menuitem-checkbox,.blocklyWidgetDiv .goog-menuitem-rtl .goog-menuitem-icon {left: auto;right: 6px;}.blocklyWidgetDiv .goog-option-selected .goog-menuitem-checkbox,.blocklyWidgetDiv .goog-option-selected .goog-menuitem-icon {background: url(//ssl.gstatic.com/editor/editortoolbar.png) no-repeat -512px 0;}.blocklyWidgetDiv .goog-menuitem-accel {color: #999;direction: ltr;left: auto;padding: 0 6px;position: absolute;right: 0;text-align: right;}.blocklyWidgetDiv .goog-menuitem-rtl .goog-menuitem-accel {left: 0;right: auto;text-align: left;}.blocklyWidgetDiv .goog-menuitem-mnemonic-hint {text-decoration: underline;}.blocklyWidgetDiv .goog-menuitem-mnemonic-separator {color: #999;font-size: 12px;padding-left: 4px;}.blocklyWidgetDiv .goog-menuseparator {border-top: 1px solid #ccc;margin: 4px 0;padding: 0;}]]></style></defs>"><g xmlns="http://www.w3.org/2000/svg" class="blocklyBlockCanvas"><g transform="translate(261.1826171875,113)"><path class="blocklyPathDark" transform="translate(1,1)"/><path class="blocklyPath"/><path class="blocklyPathLight"/></g><g class="blocklyDraggable" transform="translate(148,-35)"><path class="blocklyPathDark" transform="translate(1,1)" fill="#3c853c" d="m 0,8 A 8,8 0 0,1 8,0 H 15 l 6,4 3,0 6,-4 H 423.8853759765625 v 25 v 25 v 25 H 111.17335510253906 l -6,4 -3,0 -6,-4 h -7 a 8,8 0 0,0 -8,8 v 519 a 8,8 0 0,0 8,8 H 423.8853759765625 v 10 H 29.5 l -6,4 -3,0 -6,-4 H 8 a 8,8 0 0,1 -8,-8 z&#10;"/><path class="blocklyPath" fill="#4ba64b" d="m 0,8 A 8,8 0 0,1 8,0 H 15 l 6,4 3,0 6,-4 H 423.8853759765625 v 25 v 25 v 25 H 111.17335510253906 l -6,4 -3,0 -6,-4 h -7 a 8,8 0 0,0 -8,8 v 519 a 8,8 0 0,0 8,8 H 423.8853759765625 v 10 H 29.5 l -6,4 -3,0 -6,-4 H 8 a 8,8 0 0,1 -8,-8 z&#10;"/><path class="blocklyPathLight" stroke="#81c181" d="m 0.5,7.5 A 7.5,7.5 0 0,1 8,0.5 H 15 l 6,4 3,0 6,-4 H 423.3853759765625 M 423.3853759765625,0.5 M 423.3853759765625,25.5 M 423.3853759765625,50.5 M 423.3853759765625,75.5 M 83.1629474624534,608.0104076400856 a 8.5,8.5 0 0,0 6.0104076400856545,2.4895923599143455 H 423.3853759765625 M 2.6966991411008934,617.3033008588991 A 7.5,7.5 0 0,1 0.5,612 V 8&#10;"/><text class="blocklyText" y="12.5" style="display: block;" transform="translate(10,5)">Verbinde mit openSenseMap</text><g class="blocklyEditableText" style="display: block; cursor: default;" transform="translate(207.47988891601562,5)"><rect rx="4" ry="4" x="-5" y="0" height="16" width="216.40548706054688"/><text class="blocklyText" y="12.5">workshop.opensensemap.org<tspan style="fill: rgb(75, 166, 75);"> ▾</tspan></text></g><text class="blocklyText" y="12.5" style="display: block;" transform="translate(10,30)">Typ</text><g class="blocklyEditableText" style="display: block; cursor: default;" transform="translate(43.400970458984375,30)"><rect rx="4" ry="4" x="-5" y="0" height="16" width="82.20789337158203"/><text class="blocklyText" y="12.5">Stationär<tspan style="fill: rgb(75, 166, 75);"> ▾</tspan></text></g><text class="blocklyText" y="12.5" style="display: block;" transform="translate(10,55)">senseBox ID</text><g class="blocklyEditableText" style="display: block; cursor: text;" transform="translate(100.60017395019531,55)"><rect rx="4" ry="4" x="-5" y="0" height="16" width="13.630439758300781"/><text class="blocklyText" y="12.5"> </text></g><text class="blocklyText" y="12.5" style="display: block;" transform="translate(10,80)">Sensoren</text><g class="blocklyDraggable" style="display: block;" transform="translate(82.17335510253906,76)"><path class="blocklyPathDark" transform="translate(1,1)" fill="#3c853c" d="m 0,8 A 8,8 0 0,1 8,0 H 15 l 6,4 3,0 6,-4 H 284.7375793457031 v 25 v 5 c 0,10 -8,-8 -8,7.5 s 8,-2.5 8,7.5 v 30 H 29.5 l -6,4 -3,0 -6,-4 H 0 z&#10;"/><path class="blocklyPath" fill="#4ba64b" d="m 0,8 A 8,8 0 0,1 8,0 H 15 l 6,4 3,0 6,-4 H 284.7375793457031 v 25 v 5 c 0,10 -8,-8 -8,7.5 s 8,-2.5 8,7.5 v 30 H 29.5 l -6,4 -3,0 -6,-4 H 0 z&#10;"/><path class="blocklyPathLight" stroke="#81c181" d="m 0.5,7.5 A 7.5,7.5 0 0,1 8,0.5 H 15 l 6,4 3,0 6,-4 H 284.2375793457031 M 284.2375793457031,0.5 M 284.2375793457031,25.5 M 279.7375793457031,44.3 l 3.68,-2.1 M 0.5,74.5 V 8&#10;"/><g class="blocklyDraggable" transform="translate(285.7375793457031,25)"><path class="blocklyPathDark" transform="translate(1,1)" fill="#3c853c" d="m 0,0 H 220.22956085205078 v 25 v 25 H 0 V 20 c 0,-10 -8,8 -8,-7.5 s 8,2.5 8,-7.5 z&#10;"/><path class="blocklyPath" fill="#4ba64b" d="m 0,0 H 220.22956085205078 v 25 v 25 H 0 V 20 c 0,-10 -8,8 -8,-7.5 s 8,2.5 8,-7.5 z&#10;"/><path class="blocklyPathLight" stroke="#81c181" d="m 0.5,0.5 H 219.72956085205078 M 219.72956085205078,0.5 M 219.72956085205078,25.5 M 0.5,49.5 V 18.5 m -7.36,-0.5 q -1.52,-5.5 0,-11 m 7.36,1 V 0.5 H 1&#10;"/><text class="blocklyText" y="12.5" transform="translate(10,5)">Umweltsensor (BME680)</text><text class="blocklyText" y="12.5" transform="translate(10,30)">Messwert:</text><g class="blocklyEditableText" transform="translate(88.14781188964844,30)" style="cursor: default;"><rect rx="4" ry="4" x="-5" y="0" height="16" width="132.08174896240234"/><text class="blocklyText" y="12.5">Temperatur in °C<tspan style="fill: rgb(75, 166, 75);"> ▾</tspan></text></g></g><text class="blocklyText" y="12.5" transform="translate(10,5)">Sende Messwert an die openSenseMap</text><text class="blocklyText" y="12.5" transform="translate(10,30)">Sensor ID</text><g class="blocklyEditableText" transform="translate(82.68424987792969,30)" style="cursor: text;"><rect rx="4" ry="4" x="-5" y="0" height="16" width="13.630439758300781"/><text class="blocklyText" y="12.5"> </text></g><g class="blocklyDraggable" transform="translate(0,76)"><path class="blocklyPathDark" transform="translate(1,1)" fill="#3c853c" d="m 0,0 H 15 l 6,4 3,0 6,-4 H 284.7375793457031 v 25 v 5 c 0,10 -8,-8 -8,7.5 s 8,-2.5 8,7.5 v 30 H 29.5 l -6,4 -3,0 -6,-4 H 0 z&#10;"/><path class="blocklyPath" fill="#4ba64b" d="m 0,0 H 15 l 6,4 3,0 6,-4 H 284.7375793457031 v 25 v 5 c 0,10 -8,-8 -8,7.5 s 8,-2.5 8,7.5 v 30 H 29.5 l -6,4 -3,0 -6,-4 H 0 z&#10;"/><path class="blocklyPathLight" stroke="#81c181" d="m 0.5,0.5 H 15 l 6,4 3,0 6,-4 H 284.2375793457031 M 284.2375793457031,0.5 M 284.2375793457031,25.5 M 279.7375793457031,44.3 l 3.68,-2.1 M 0.5,74.5 V 0.5&#10;"/><g class="blocklyDraggable" transform="translate(285.7375793457031,25)"><path class="blocklyPathDark" transform="translate(1,1)" fill="#3c853c" d="m 0,0 H 242.8500213623047 v 25 v 25 H 0 V 20 c 0,-10 -8,8 -8,-7.5 s 8,2.5 8,-7.5 z&#10;"/><path class="blocklyPath" fill="#4ba64b" d="m 0,0 H 242.8500213623047 v 25 v 25 H 0 V 20 c 0,-10 -8,8 -8,-7.5 s 8,2.5 8,-7.5 z&#10;"/><path class="blocklyPathLight" stroke="#81c181" d="m 0.5,0.5 H 242.3500213623047 M 242.3500213623047,0.5 M 242.3500213623047,25.5 M 0.5,49.5 V 18.5 m -7.36,-0.5 q -1.52,-5.5 0,-11 m 7.36,1 V 0.5 H 1&#10;"/><text class="blocklyText" y="12.5" transform="translate(10,5)">Umweltsensor (BME680)</text><text class="blocklyText" y="12.5" transform="translate(10,30)">Messwert:</text><g class="blocklyEditableText" transform="translate(88.14781188964844,30)" style="cursor: default;"><rect rx="4" ry="4" x="-5" y="0" height="16" width="154.70220947265625"/><text class="blocklyText" y="12.5">Luftfeuchtigkeit in %<tspan style="fill: rgb(75, 166, 75);"> ▾</tspan></text></g></g><text class="blocklyText" y="12.5" transform="translate(10,5)">Sende Messwert an die openSenseMap</text><text class="blocklyText" y="12.5" transform="translate(10,30)">Sensor ID</text><g class="blocklyEditableText" transform="translate(82.68424987792969,30)" style="cursor: text;"><rect rx="4" ry="4" x="-5" y="0" height="16" width="13.630439758300781"/><text class="blocklyText" y="12.5"> </text></g><g class="blocklyDraggable" transform="translate(0,76)"><path class="blocklyPathDark" transform="translate(1,1)" fill="#3c853c" d="m 0,0 H 15 l 6,4 3,0 6,-4 H 284.7375793457031 v 25 v 5 c 0,10 -8,-8 -8,7.5 s 8,-2.5 8,7.5 v 30 H 29.5 l -6,4 -3,0 -6,-4 H 0 z&#10;"/><path class="blocklyPath" fill="#4ba64b" d="m 0,0 H 15 l 6,4 3,0 6,-4 H 284.7375793457031 v 25 v 5 c 0,10 -8,-8 -8,7.5 s 8,-2.5 8,7.5 v 30 H 29.5 l -6,4 -3,0 -6,-4 H 0 z&#10;"/><path class="blocklyPathLight" stroke="#81c181" d="m 0.5,0.5 H 15 l 6,4 3,0 6,-4 H 284.2375793457031 M 284.2375793457031,0.5 M 284.2375793457031,25.5 M 279.7375793457031,44.3 l 3.68,-2.1 M 0.5,74.5 V 0.5&#10;"/><g class="blocklyDraggable" transform="translate(285.7375793457031,25)"><path class="blocklyPathDark" transform="translate(1,1)" fill="#3c853c" d="m 0,0 H 209.17353057861328 v 25 v 25 H 0 V 20 c 0,-10 -8,8 -8,-7.5 s 8,2.5 8,-7.5 z&#10;"/><path class="blocklyPath" fill="#4ba64b" d="m 0,0 H 209.17353057861328 v 25 v 25 H 0 V 20 c 0,-10 -8,8 -8,-7.5 s 8,2.5 8,-7.5 z&#10;"/><path class="blocklyPathLight" stroke="#81c181" d="m 0.5,0.5 H 208.67353057861328 M 208.67353057861328,0.5 M 208.67353057861328,25.5 M 0.5,49.5 V 18.5 m -7.36,-0.5 q -1.52,-5.5 0,-11 m 7.36,1 V 0.5 H 1&#10;"/><text class="blocklyText" y="12.5" transform="translate(10,5)">Umweltsensor (BME680)</text><text class="blocklyText" y="12.5" transform="translate(10,30)">Messwert:</text><g class="blocklyEditableText" transform="translate(88.14781188964844,30)" style="cursor: default;"><rect rx="4" ry="4" x="-5" y="0" height="16" width="121.02571868896484"/><text class="blocklyText" y="12.5">Luftdruck in Pa<tspan style="fill: rgb(75, 166, 75);"> ▾</tspan></text></g></g><text class="blocklyText" y="12.5" transform="translate(10,5)">Sende Messwert an die openSenseMap</text><text class="blocklyText" y="12.5" transform="translate(10,30)">Sensor ID</text><g class="blocklyEditableText" transform="translate(82.68424987792969,30)" style="cursor: text;"><rect rx="4" ry="4" x="-5" y="0" height="16" width="13.630439758300781"/><text class="blocklyText" y="12.5"> </text></g><g class="blocklyDraggable" transform="translate(0,76)"><path class="blocklyPathDark" transform="translate(1,1)" fill="#3c853c" d="m 0,0 H 15 l 6,4 3,0 6,-4 H 284.7375793457031 v 25 v 5 c 0,10 -8,-8 -8,7.5 s 8,-2.5 8,7.5 v 30 H 29.5 l -6,4 -3,0 -6,-4 H 0 z&#10;"/><path class="blocklyPath" fill="#4ba64b" d="m 0,0 H 15 l 6,4 3,0 6,-4 H 284.7375793457031 v 25 v 5 c 0,10 -8,-8 -8,7.5 s 8,-2.5 8,7.5 v 30 H 29.5 l -6,4 -3,0 -6,-4 H 0 z&#10;"/><path class="blocklyPathLight" stroke="#81c181" d="m 0.5,0.5 H 15 l 6,4 3,0 6,-4 H 284.2375793457031 M 284.2375793457031,0.5 M 284.2375793457031,25.5 M 279.7375793457031,44.3 l 3.68,-2.1 M 0.5,74.5 V 0.5&#10;"/><g class="blocklyDraggable" transform="translate(285.7375793457031,25)"><path class="blocklyPathDark" transform="translate(1,1)" fill="#3c853c" d="m 0,0 H 203.65267944335938 v 25 v 25 H 0 V 20 c 0,-10 -8,8 -8,-7.5 s 8,2.5 8,-7.5 z&#10;"/><path class="blocklyPath" fill="#4ba64b" d="m 0,0 H 203.65267944335938 v 25 v 25 H 0 V 20 c 0,-10 -8,8 -8,-7.5 s 8,2.5 8,-7.5 z&#10;"/><path class="blocklyPathLight" stroke="#81c181" d="m 0.5,0.5 H 203.15267944335938 M 203.15267944335938,0.5 M 203.15267944335938,25.5 M 0.5,49.5 V 18.5 m -7.36,-0.5 q -1.52,-5.5 0,-11 m 7.36,1 V 0.5 H 1&#10;"/><text class="blocklyText" y="12.5" transform="translate(10,5)">Umweltsensor (BME680)</text><text class="blocklyText" y="12.5" transform="translate(10,30)">Messwert:</text><g class="blocklyEditableText" transform="translate(88.14781188964844,30)" style="cursor: default;"><rect rx="4" ry="4" x="-5" y="0" height="16" width="115.50486755371094"/><text class="blocklyText" y="12.5">Atemluft VOC <tspan style="fill: rgb(75, 166, 75);"> ▾</tspan></text></g></g><text class="blocklyText" y="12.5" transform="translate(10,5)">Sende Messwert an die openSenseMap</text><text class="blocklyText" y="12.5" transform="translate(10,30)">Sensor ID</text><g class="blocklyEditableText" transform="translate(82.68424987792969,30)" style="cursor: text;"><rect rx="4" ry="4" x="-5" y="0" height="16" width="13.630439758300781"/><text class="blocklyText" y="12.5"> </text></g><g class="blocklyDraggable" transform="translate(0,76)"><path class="blocklyPathDark" transform="translate(1,1)" fill="#3c853c" d="m 0,0 H 15 l 6,4 3,0 6,-4 H 284.7375793457031 v 25 v 5 c 0,10 -8,-8 -8,7.5 s 8,-2.5 8,7.5 v 30 H 29.5 l -6,4 -3,0 -6,-4 H 0 z&#10;"/><path class="blocklyPath" fill="#4ba64b" d="m 0,0 H 15 l 6,4 3,0 6,-4 H 284.7375793457031 v 25 v 5 c 0,10 -8,-8 -8,7.5 s 8,-2.5 8,7.5 v 30 H 29.5 l -6,4 -3,0 -6,-4 H 0 z&#10;"/><path class="blocklyPathLight" stroke="#81c181" d="m 0.5,0.5 H 15 l 6,4 3,0 6,-4 H 284.2375793457031 M 284.2375793457031,0.5 M 284.2375793457031,25.5 M 279.7375793457031,44.3 l 3.68,-2.1 M 0.5,74.5 V 0.5&#10;"/><g class="blocklyDraggable" transform="translate(285.7375793457031,25)"><path class="blocklyPathDark" transform="translate(1,1)" fill="#3c853c" d="m 0,0 H 211.36469268798828 v 25 v 25 H 0 V 20 c 0,-10 -8,8 -8,-7.5 s 8,2.5 8,-7.5 z&#10;"/><path class="blocklyPath" fill="#4ba64b" d="m 0,0 H 211.36469268798828 v 25 v 25 H 0 V 20 c 0,-10 -8,8 -8,-7.5 s 8,2.5 8,-7.5 z&#10;"/><path class="blocklyPathLight" stroke="#81c181" d="m 0.5,0.5 H 210.86469268798828 M 210.86469268798828,0.5 M 210.86469268798828,25.5 M 0.5,49.5 V 18.5 m -7.36,-0.5 q -1.52,-5.5 0,-11 m 7.36,1 V 0.5 H 1&#10;"/><text class="blocklyText" y="12.5" transform="translate(10,5)">Umweltsensor (BME680)</text><text class="blocklyText" y="12.5" transform="translate(10,30)">Messwert:</text><g class="blocklyEditableText" transform="translate(88.14781188964844,30)" style="cursor: default;"><rect rx="4" ry="4" x="-5" y="0" height="16" width="123.21688079833984"/><text class="blocklyText" y="12.5">CO2 Äquivalent<tspan style="fill: rgb(75, 166, 75);"> ▾</tspan></text></g></g><text class="blocklyText" y="12.5" transform="translate(10,5)">Sende Messwert an die openSenseMap</text><text class="blocklyText" y="12.5" transform="translate(10,30)">Sensor ID</text><g class="blocklyEditableText" transform="translate(82.68424987792969,30)" style="cursor: text;"><rect rx="4" ry="4" x="-5" y="0" height="16" width="13.630439758300781"/><text class="blocklyText" y="12.5"> </text></g><g class="blocklyDraggable" transform="translate(0,76)"><path class="blocklyPathDark" transform="translate(1,1)" fill="#3c853c" d="m 0,0 H 15 l 6,4 3,0 6,-4 H 284.7375793457031 v 25 v 5 c 0,10 -8,-8 -8,7.5 s 8,-2.5 8,7.5 v 30 H 29.5 l -6,4 -3,0 -6,-4 H 0 z&#10;"/><path class="blocklyPath" fill="#4ba64b" d="m 0,0 H 15 l 6,4 3,0 6,-4 H 284.7375793457031 v 25 v 5 c 0,10 -8,-8 -8,7.5 s 8,-2.5 8,7.5 v 30 H 29.5 l -6,4 -3,0 -6,-4 H 0 z&#10;"/><path class="blocklyPathLight" stroke="#81c181" d="m 0.5,0.5 H 15 l 6,4 3,0 6,-4 H 284.2375793457031 M 284.2375793457031,0.5 M 284.2375793457031,25.5 M 279.7375793457031,44.3 l 3.68,-2.1 M 0.5,74.5 V 0.5&#10;"/><g class="blocklyDraggable" transform="translate(285.7375793457031,25)"><path class="blocklyPathDark" transform="translate(1,1)" fill="#3c853c" d="m 0,0 H 288.79270935058594 v 25 v 25 H 0 V 20 c 0,-10 -8,8 -8,-7.5 s 8,2.5 8,-7.5 z&#10;"/><path class="blocklyPath" fill="#4ba64b" d="m 0,0 H 288.79270935058594 v 25 v 25 H 0 V 20 c 0,-10 -8,8 -8,-7.5 s 8,2.5 8,-7.5 z&#10;"/><path class="blocklyPathLight" stroke="#81c181" d="m 0.5,0.5 H 288.29270935058594 M 288.29270935058594,0.5 M 288.29270935058594,25.5 M 0.5,49.5 V 18.5 m -7.36,-0.5 q -1.52,-5.5 0,-11 m 7.36,1 V 0.5 H 1&#10;"/><text class="blocklyText" y="12.5" transform="translate(10,5)">Umweltsensor (BME680)</text><text class="blocklyText" y="12.5" transform="translate(10,30)">Messwert:</text><g class="blocklyEditableText" transform="translate(88.14781188964844,30)" style="cursor: default;"><rect rx="4" ry="4" x="-5" y="0" height="16" width="200.6448974609375"/><text class="blocklyText" y="12.5">Innenraumluftqualität (IAQ)<tspan style="fill: rgb(75, 166, 75);"> ▾</tspan></text></g></g><text class="blocklyText" y="12.5" transform="translate(10,5)">Sende Messwert an die openSenseMap</text><text class="blocklyText" y="12.5" transform="translate(10,30)">Sensor ID</text><g class="blocklyEditableText" transform="translate(82.68424987792969,30)" style="cursor: text;"><rect rx="4" ry="4" x="-5" y="0" height="16" width="13.630439758300781"/><text class="blocklyText" y="12.5"> </text></g><g class="blocklyDraggable" transform="translate(0,76)"><path class="blocklyPathDark" transform="translate(1,1)" fill="#3c853c" d="m 0,0 H 15 l 6,4 3,0 6,-4 H 284.7375793457031 v 25 v 5 c 0,10 -8,-8 -8,7.5 s 8,-2.5 8,7.5 v 30 H 29.5 l -6,4 -3,0 -6,-4 H 8 a 8,8 0 0,1 -8,-8 z&#10;"/><path class="blocklyPath" fill="#4ba64b" d="m 0,0 H 15 l 6,4 3,0 6,-4 H 284.7375793457031 v 25 v 5 c 0,10 -8,-8 -8,7.5 s 8,-2.5 8,7.5 v 30 H 29.5 l -6,4 -3,0 -6,-4 H 8 a 8,8 0 0,1 -8,-8 z&#10;"/><path class="blocklyPathLight" stroke="#81c181" d="m 0.5,0.5 H 15 l 6,4 3,0 6,-4 H 284.2375793457031 M 284.2375793457031,0.5 M 284.2375793457031,25.5 M 279.7375793457031,44.3 l 3.68,-2.1 M 2.6966991411008934,72.3033008588991 A 7.5,7.5 0 0,1 0.5,67 V 0.5&#10;"/><g class="blocklyDraggable" transform="translate(285.7375793457031,25)"><path class="blocklyPathDark" transform="translate(1,1)" fill="#3c853c" d="m 0,0 H 225.77906799316406 v 25 v 25 H 0 V 20 c 0,-10 -8,8 -8,-7.5 s 8,2.5 8,-7.5 z&#10;"/><path class="blocklyPath" fill="#4ba64b" d="m 0,0 H 225.77906799316406 v 25 v 25 H 0 V 20 c 0,-10 -8,8 -8,-7.5 s 8,2.5 8,-7.5 z&#10;"/><path class="blocklyPathLight" stroke="#81c181" d="m 0.5,0.5 H 225.27906799316406 M 225.27906799316406,0.5 M 225.27906799316406,25.5 M 0.5,49.5 V 18.5 m -7.36,-0.5 q -1.52,-5.5 0,-11 m 7.36,1 V 0.5 H 1&#10;"/><text class="blocklyText" y="12.5" transform="translate(10,5)">Umweltsensor (BME680)</text><text class="blocklyText" y="12.5" transform="translate(10,30)">Messwert:</text><g class="blocklyEditableText" transform="translate(88.14781188964844,30)" style="cursor: default;"><rect rx="4" ry="4" x="-5" y="0" height="16" width="137.63125610351562"/><text class="blocklyText" y="12.5">Kalibrierungswert<tspan style="fill: rgb(75, 166, 75);"> ▾</tspan></text></g></g><text class="blocklyText" y="12.5" transform="translate(10,5)">Sende Messwert an die openSenseMap</text><text class="blocklyText" y="12.5" transform="translate(10,30)">Sensor ID</text><g class="blocklyEditableText" transform="translate(82.68424987792969,30)" style="cursor: text;"><rect rx="4" ry="4" x="-5" y="0" height="16" width="13.630439758300781"/><text class="blocklyText" y="12.5"> </text></g></g></g></g></g></g></g></g></g></g></svg>