<?xml version="1.0" encoding="UTF-8" standalone="no"?>
<!-- Created with Inkscape (http://www.inkscape.org/) -->

<svg
   xmlns:dc="http://purl.org/dc/elements/1.1/"
   xmlns:cc="http://creativecommons.org/ns#"
   xmlns:rdf="http://www.w3.org/1999/02/22-rdf-syntax-ns#"
   xmlns:svg="http://www.w3.org/2000/svg"
   xmlns="http://www.w3.org/2000/svg"
   xmlns:sodipodi="http://sodipodi.sourceforge.net/DTD/sodipodi-0.dtd"
   xmlns:inkscape="http://www.inkscape.org/namespaces/inkscape"
   width="90mm"
   height="31.883137mm"
   viewBox="0 0 318.89763 112.97174"
   id="svg2"
   version="1.1"
   inkscape:version="0.91 r13725"
   sodipodi:docname="sensebox_wort_und_logo_sticker.svg">
  <defs
     id="defs4">
    <clipPath
       id="clipPath3372"
       clipPathUnits="userSpaceOnUse">
      <path
         inkscape:connector-curvature="0"
         id="path3374"
         d="M 1776.56,314.355 1577.99,115.773 1379.41,314.355 1577.99,512.93 1776.56,314.355" />
    </clipPath>
  </defs>
  <sodipodi:namedview
     id="base"
     pagecolor="#dddadf"
     bordercolor="#666666"
     borderopacity="1.0"
     inkscape:pageopacity="0"
     inkscape:pageshadow="2"
     inkscape:zoom="2.35"
     inkscape:cx="114.12747"
     inkscape:cy="5.7230119"
     inkscape:document-units="px"
     inkscape:current-layer="layer1"
     showgrid="false"
     units="mm"
     showguides="false"
     fit-margin-top="0"
     fit-margin-left="0"
     fit-margin-right="0"
     fit-margin-bottom="0"
     inkscape:window-width="2560"
     inkscape:window-height="1385"
     inkscape:window-x="0"
     inkscape:window-y="27"
     inkscape:window-maximized="1" />
  <metadata
     id="metadata7">
    <rdf:RDF>
      <cc:Work
         rdf:about="">
        <dc:format>image/svg+xml</dc:format>
        <dc:type
           rdf:resource="http://purl.org/dc/dcmitype/StillImage" />
        <dc:title></dc:title>
      </cc:Work>
    </rdf:RDF>
  </metadata>
  <g
     inkscape:label="Layer 1"
     inkscape:groupmode="layer"
     id="layer1"
     transform="translate(94.998362,-918.48436)">
    <g
       id="g4366"
       transform="matrix(1.0627712,0,0,1.0627712,5.9631576,-64.745698)">
      <rect
         transform="matrix(0.70710678,-0.70710678,-0.70710678,-0.70710678,0,0)"
         y="-836.76929"
         x="-621.92987"
         height="75.164894"
         width="75.164894"
         id="rect4526"
         style="fill:#ffffff;fill-opacity:1;stroke:none;stroke-width:10.62992096;stroke-linecap:round;stroke-linejoin:round;stroke-miterlimit:4;stroke-dasharray:none;stroke-opacity:1" />
      <path
         d="m 171.0983,1003.7048 c -4.99435,-4.72831 -11.7118,-7.65269 -19.11889,-7.65287 -7.47225,-1.9e-4 -14.239,2.95439 -19.2376,7.72657 l 19.13732,19.1379 19.21931,-19.2117"
         style="fill:#4ebe4b;fill-opacity:1;fill-rule:nonzero;stroke:none"
         id="path3354"
         inkscape:connector-curvature="0" />
      <path
         d="m 152.03003,954.94671 c -6.02317,-1.6e-4 -11.5881,-1.98091 -16.09039,-5.30535 l 15.94608,-15.94631 16.08619,16.08663 c -4.47968,3.24243 -9.9816,5.16517 -15.94188,5.16503"
         style="fill:#fff200;fill-opacity:1;fill-rule:nonzero;stroke:none"
         id="path3356"
         inkscape:connector-curvature="0" />
      <path
         d="m 150.08239,961.56272 c 0.28087,1.73686 -0.89407,3.35507 -2.61946,3.62709 -1.7254,0.2754 -3.34748,-0.90143 -3.61937,-2.61627 -0.28087,-1.73058 0.89407,-3.35395 2.61946,-3.62508 1.72315,-0.28258 3.34749,0.89513 3.61937,2.61426"
         style="fill:#45beed;fill-opacity:1;fill-rule:nonzero;stroke:none"
         id="path3358"
         inkscape:connector-curvature="0" />
      <path
         d="m 160.36802,986.16163 c 0.27188,1.72204 -0.89407,3.34542 -2.62845,3.62441 -1.72765,0.26932 -3.34299,-0.89964 -3.61937,-2.62235 -0.28086,-1.73057 0.89407,-3.34788 2.61947,-3.62417 1.72539,-0.28259 3.34298,0.89602 3.62835,2.62211"
         style="fill:#45beed;fill-opacity:1;fill-rule:nonzero;stroke:none"
         id="path3362"
         inkscape:connector-curvature="0" />
      <path
         d="m 163.52632,968.56284 c 0.27638,1.71642 -0.89407,3.34002 -2.62396,3.61901 -1.72315,0.28168 -3.34298,-0.89514 -3.62386,-2.62235 -0.28086,-1.7245 0.90082,-3.34788 2.61947,-3.6244 1.72989,-0.27808 3.34748,0.89963 3.62835,2.62774"
         style="fill:#45beed;fill-opacity:1;fill-rule:nonzero;stroke:none"
         id="path3364"
         inkscape:connector-curvature="0" />
      <path
         d="m 180.64618,994.22031 -5.78095,-5.77616 5.98483,-5.98506 -11.97446,-3.1e-4 -4.14514,-4.14934 4.02811,-4.03051 12.20138,3e-4 -6.0997,-6.10827 5.78714,-5.77683 15.84579,15.84602 -15.84724,15.98047"
         style="fill:#45beed;fill-opacity:1;fill-rule:nonzero;stroke:none"
         id="path3366"
         inkscape:connector-curvature="0" />
      <g
         id="g4284">
        <path
           style="color:#000000;font-style:normal;font-variant:normal;font-weight:normal;font-stretch:normal;font-size:medium;line-height:125%;font-family:'2EF157_1_0';-inkscape-font-specification:'2EF157_1_0';text-indent:0;text-align:start;text-decoration:none;text-decoration-line:none;text-decoration-style:solid;text-decoration-color:#000000;letter-spacing:0px;word-spacing:0px;text-transform:none;direction:ltr;block-progression:tb;writing-mode:lr-tb;baseline-shift:baseline;text-anchor:start;white-space:normal;clip-rule:nonzero;display:inline;overflow:visible;visibility:visible;opacity:1;isolation:auto;mix-blend-mode:normal;color-interpolation:sRGB;color-interpolation-filters:linearRGB;solid-color:#000000;solid-opacity:1;fill:#ffffff;fill-opacity:1;fill-rule:nonzero;stroke:none;stroke-width:8.85826683;stroke-linecap:round;stroke-linejoin:round;stroke-miterlimit:4;stroke-dasharray:none;stroke-dashoffset:0;stroke-opacity:1;color-rendering:auto;image-rendering:auto;shape-rendering:auto;text-rendering:auto;enable-background:accumulate"
           d="m 29.380748,950.34025 c -3.058468,-7e-5 -5.537854,2.47931 -5.537775,5.53778 l 0,4.02392 c 0.0014,1.28202 0.447538,2.52384 1.262362,3.51359 -2.298582,-1.55611 -5.064914,-2.36017 -7.845183,-2.4954 -0.268736,-0.0461 -0.540504,-0.0722 -0.813087,-0.0782 -0.311411,0.005 -0.621793,0.0375 -0.927847,0.0953 -3.471667,0.1947 -6.8448292,1.47225 -9.4225183,3.76022 -0.5940896,-0.84314 -1.4118483,-1.5036 -2.3611233,-1.90696 l -0.1880101,-0.0805 -0.00254,0 c -2.76449769,-1.17247 -5.7943826,-1.68629 -8.9463876,-1.78244 -0.3087396,-0.0549 -0.6215872,-0.0835 -0.9351699,-0.0855 -3.7354108,0 -7.5377838,0.9158 -10.3454818,3.63081 -0.581254,0.55522 -0.916448,1.32362 -1.382002,1.99242 -0.280338,-0.45039 -0.51998,-0.91579 -0.871688,-1.3405 -2.173672,-2.65393 -5.382109,-3.65723 -8.575248,-3.97752 -0.575734,-0.19951 -1.180449,-0.30264 -1.789766,-0.30521 -1.909894,0 -3.735305,0.40878 -5.479175,0.96691 -0.696544,-0.30644 -1.448772,-0.46603 -2.209738,-0.4688 l -7.327541,0 c -1.696999,-6.4e-4 -3.300601,0.77687 -4.351109,2.10963 -2.533996,-1.73581 -5.65139,-2.60774 -8.72175,-2.60774 -3.78406,0 -7.541902,1.36262 -10.350366,3.85543 -0.59409,-0.84313 -1.411848,-1.50359 -2.361124,-1.90696 l -0.18801,-0.0805 -0.0025,0 c -2.75133,-1.16681 -5.766717,-1.6773 -8.902437,-1.77756 -0.323048,-0.0591 -0.650713,-0.0894 -0.97912,-0.0904 -3.735409,0 -7.537782,0.91579 -10.345483,3.6308 -2.371126,2.265 -3.855443,5.60903 -3.855443,8.91953 0,1.53099 0.384146,3.07041 0.979121,4.54155 -1.137042,1.14815 -1.715862,2.73568 -1.584663,4.34625 l 0.590892,7.22253 c 0.16415,2.00495 1.402669,3.76317 3.23525,4.59284 l 0.168593,0.0756 0.02198,0.01 c 3.270867,1.4633 6.802402,2.20975 10.391874,2.20975 2.915261,0 5.693543,-0.74885 8.208995,-2.12429 0.752055,-0.20384 1.452623,-0.56413 2.055911,-1.05727 l 0.0097,-0.007 c 0.555507,-0.45892 0.875054,-1.16035 1.345376,-1.72383 2.964754,3.34266 7.452399,4.91269 11.961886,4.91269 3.043338,0 5.948908,-0.89917 8.70466,-2.18045 1.037804,1.04266 2.447826,1.62951 3.918929,1.63107 l 0.312537,0 11.163451,0 c 0.558107,-4.2e-4 1.112943,-0.0852 1.645705,-0.2515 0.528071,0.16484 1.077861,0.24961 1.631056,0.2515 l 11.475988,0 c 1.117318,7e-5 2.208527,-0.33784 3.13026,-0.96935 2.66715,0.91973 5.4324105,1.51873 8.2724781,1.51873 2.9152565,0 5.6935392,-0.74882 8.2089939,-2.12427 0.7520558,-0.20385 1.4526237,-0.56413 2.0559123,-1.05726 l 0.00975,-0.007 c 0.555506,-0.45893 0.8750551,-1.16034 1.3453765,-1.72383 2.964752,3.34267 7.4524002,4.91269 11.9618862,4.91269 3.020337,0 5.905108,-0.88607 8.64362,-2.1487 1.035789,1.02386 2.433218,1.59844 3.889632,1.59931 l 0.312537,0 14.100819,0 c 4.571912,0 8.851351,-0.90597 12.203617,-3.67964 0.566369,-0.46864 1.00886,-1.04015 1.474778,-1.59198 0.45858,0.54421 0.902959,1.04176 1.333286,1.43089 2.948316,2.94476 7.135069,4.38773 11.366115,4.38773 3.120476,0 6.201158,-0.77178 8.829186,-2.30008 1.0443,1.11555 2.503162,1.74999 4.031239,1.75313 l 11.876432,0 c 0.798714,-0.003 1.587517,-0.17707 2.312296,-0.51275 0.724751,0.33568 1.513553,0.5106 2.312267,0.51275 l 9.127091,5.6e-4 26.93981,0 c 25.53343,0 14.49546,-32.23962 1.11526,-34.50165 l -28.75584,0 c -1.24856,0 -11.827593,-1.1e-4 -11.827593,-1.1e-4 -0.651107,0.003 -1.296654,0.11988 -1.906971,0.34672 -0.613409,-0.22792 -1.262367,-0.34531 -1.916729,-0.34672 l -9.175916,0 c -1.5476,0.003 -3.023587,0.65227 -4.070314,1.79221 -2.616639,-1.52459 -5.68447,-2.29277 -8.790118,-2.29277 -0.302836,0.003 -0.604997,0.029 -0.903421,0.0805 -3.713109,0.16441 -7.30124,1.37337 -10.040269,3.78219 -0.02125,-3.85025 -1.404907,-7.80324 -4.287628,-10.47733 -3.016077,-2.85974 -7.107868,-3.88474 -11.246466,-3.88474 l -14.413356,0 z m -48.675283,14.38648 0.351605,0.38823 c -0.0039,-0.005 -0.0059,-0.01 -0.0097,-0.0146 -0.108188,-0.12968 -0.222255,-0.25434 -0.341839,-0.37359 z m -2.986199,3.78951 0.100112,0.11964 c -0.02551,-0.0363 -0.05963,-0.0523 -0.08546,-0.0879 -0.0077,-0.01 -0.0069,-0.0214 -0.01466,-0.0317 z m -48.838877,0.40532 0.08057,0 0.06592,0.46148 c -0.0053,0.0112 -0.01175,0.0209 -0.01709,0.0317 -0.03554,-0.16631 -0.07871,-0.33089 -0.12941,-0.49323 z"
           id="path4366-1"
           inkscape:connector-curvature="0"
           sodipodi:nodetypes="ccccccccccccccccccccccscccccccsccccccsccccsccccccccsccccscccscccsccccccscccccccccccsccccccccccccccccc" />
        <path
           style="font-style:normal;font-variant:normal;font-weight:normal;font-stretch:normal;font-size:medium;line-height:125%;font-family:'2EF157_1_0';-inkscape-font-specification:'2EF157_1_0';letter-spacing:0px;word-spacing:0px;fill:#4ebe4b;fill-opacity:1;stroke:none;stroke-width:0.49999994;stroke-linecap:butt;stroke-linejoin:miter;stroke-miterlimit:4;stroke-dasharray:none;stroke-opacity:1"
           d="m 29.380323,955.87705 0,4.02391 3.750451,0 0,26.38013 -3.750451,0 0,4.02392 0.312538,0 14.10082,0 c 3.810219,0 6.712955,-0.7862 8.675354,-2.40996 1.962415,-1.62376 2.939807,-4.07431 2.939807,-7.25429 0,-2.32669 -0.675418,-4.29614 -2.026606,-5.85519 -1.142453,-1.31822 -2.543571,-2.12957 -4.097184,-2.60285 1.178355,-0.40215 2.223768,-1.08113 3.0155,-2.21218 1.007601,-1.42454 1.506535,-3.16316 1.506535,-5.18129 0,-2.76335 -0.849231,-4.96572 -2.551572,-6.52911 -1.676114,-1.60381 -4.181191,-2.38309 -7.461834,-2.38309 l -14.413358,0 z m 8.3262,4.02391 5.337555,0 c 2.089639,0 3.611846,0.44312 4.600152,1.27701 0.988319,0.83389 1.489442,2.07301 1.489442,3.8115 0,1.87473 -0.519013,3.21847 -1.533385,4.11671 -1.014371,0.89821 -2.567683,1.37224 -4.705152,1.37224 l -5.188612,0 0,-10.57746 z m -117.880385,6.47783 c -2.881169,0 -5.070322,0.67786 -6.514454,2.08521 -1.419991,1.35073 -2.148696,3.01613 -2.148696,4.92736 0,1.57753 0.467262,2.93971 1.399094,4.03856 0.931258,1.09818 2.312853,1.92856 4.116704,2.50763 l 4.104498,1.35271 0.0049,0.003 c 1.033094,0.30669 1.784121,0.71912 2.265897,1.21595 0.481777,0.49685 0.710534,1.06995 0.710534,1.78246 0,0.98015 -0.370053,1.68875 -1.162249,2.23903 -0.801871,0.52308 -1.869418,0.80088 -3.225486,0.80088 -1.512663,0 -2.898618,-0.30079 -4.189956,-0.84728 l -1.062139,-4.65386 -3.586857,0 0.590891,7.22254 0.168478,0.0756 c 2.572816,1.151 5.288356,1.72629 8.130859,1.72629 2.911833,0 5.173233,-0.62366 6.748859,-1.91918 l 0,-0.003 c 1.591634,-1.31484 2.412398,-2.98711 2.412398,-4.93957 0,-1.6328 -0.525119,-3.0487 -1.567571,-4.18751 -1.040655,-1.13685 -2.58075,-1.99939 -4.595278,-2.61018 l -0.0097,-0.003 -3.89451,-1.29899 -0.0049,-0.003 c -0.895958,-0.27198 -1.541708,-0.65216 -1.958243,-1.12075 -0.416535,-0.46861 -0.620191,-1.0278 -0.620192,-1.73114 0,-0.85533 0.304924,-1.55662 0.952263,-2.17314 0.624734,-0.59498 1.584364,-0.91318 2.934923,-0.91318 1.439819,0 2.682651,0.21991 3.774868,0.6031 l 0.556707,3.89695 3.581974,0 0,-6.57062 -0.190452,-0.0806 c -2.245196,-0.95251 -4.822166,-1.42351 -7.723097,-1.42351 z m 22.7835,0 c -3.33722,0 -5.939251,1.14393 -7.698679,3.42083 -1.749235,2.26372 -2.61506,5.19028 -2.61506,8.74129 0,3.78029 0.844904,6.79194 2.566226,8.99522 1.734077,2.21962 4.485782,3.31827 8.147951,3.31827 3.161986,0 6.113167,-0.93749 8.826744,-2.80308 l 0.209987,-0.14407 -1.548038,-3.69184 -0.314978,0.21976 c -2.32461,1.60429 -4.692641,2.39531 -7.12488,2.39531 -2.039481,0 -3.518331,-0.58188 -4.526912,-1.73118 -0.95738,-1.09097 -1.47013,-2.77445 -1.565128,-4.9957 l 14.711239,0 0.04151,-0.26372 c 0.202131,-1.28015 0.30277,-2.46145 0.30277,-3.54778 0,-2.72689 -0.791038,-5.07705 -2.370891,-7.00036 -1.596973,-1.94413 -3.976677,-2.91295 -7.041861,-2.91295 z m 28.089313,0 c -3.227893,0 -5.761526,0.99379 -7.688912,2.78599 l 0,-2.28788 -7.327541,0 0,4.02637 3.252345,0 0,15.42666 -3.301179,0 0,3.97508 0.312538,0 11.163451,0 0,-3.97508 -3.799285,0 0,-13.51481 c 0.655672,-0.57137 1.53437,-1.09062 2.698078,-1.53095 1.200363,-0.45418 2.412137,-0.68122 3.640573,-0.68122 1.919227,0 3.097229,0.4428 3.643017,1.2184 l 0.0049,0.005 0.0049,0.005 c 0.60063,0.78081 0.935172,2.07947 0.935172,3.90916 l 0,10.58966 -3.850561,0 0,3.97508 11.475988,0 0,-3.97508 -3.249902,0 0,-10.88755 c 0,-3.03929 -0.585737,-5.31556 -1.821507,-6.80012 l -0.0025,-0.003 c -1.242467,-1.52444 -3.302887,-2.26102 -6.089599,-2.26102 z m 22.9641862,0 c -2.88117,0 -5.0703232,0.67786 -6.5144552,2.08521 -1.419991,1.35073 -2.148696,3.01613 -2.148696,4.92736 0,1.57753 0.467263,2.93971 1.399094,4.03856 0.931259,1.09818 2.312853,1.92856 4.1167052,2.50763 l 4.104497,1.35271 0.00488,0.003 c 1.0330941,0.30669 1.7841219,0.71912 2.2658973,1.21595 0.4817767,0.49685 0.7105341,1.06995 0.7105341,1.78246 0,0.98015 -0.3700532,1.68875 -1.1622484,2.23903 -0.8018713,0.52308 -1.8694184,0.80088 -3.2254864,0.80088 -1.5126629,0 -2.8986183,-0.30079 -4.1899558,-0.84728 l -1.062139,-4.65386 -3.586858,0 0.590891,7.22254 0.168478,0.0756 c 2.572817,1.151 5.2883559,1.72629 8.13086,1.72629 2.9118324,0 5.1732329,-0.62366 6.74885893,-1.91918 l 0,-0.003 c 1.59163447,-1.31484 2.41239847,-2.98711 2.41239847,-4.93957 0,-1.6328 -0.5251184,-3.0487 -1.56757102,-4.18751 -1.04065512,-1.13685 -2.58075018,-1.99939 -4.59527858,-2.61018 l -0.00975,-0.003 -3.8945105,-1.29899 -0.00488,-0.003 c -0.8959576,-0.27198 -1.5417077,-0.65216 -1.9582428,-1.12075 -0.4165355,-0.46861 -0.6201925,-1.0278 -0.6201925,-1.73114 0,-0.85533 0.3049246,-1.55662 0.9522637,-2.17314 0.6247338,-0.59498 1.5843641,-0.91318 2.9349239,-0.91318 1.439818,0 2.6826498,0.21991 3.7748674,0.6031 l 0.5567069,3.89695 3.5819741,0 0,-6.57062 -0.1904523,-0.0806 c -2.24519498,-0.95254 -4.8221659,-1.42354 -7.7230957,-1.42354 z m 22.7834998,0 c -3.337221,0 -5.939252,1.14393 -7.6986794,3.42083 -1.749235,2.26372 -2.6150602,5.19028 -2.6150602,8.74129 0,3.78029 0.8449042,6.79194 2.5662257,8.99522 1.7340769,2.21962 4.4857819,3.31827 8.1479509,3.31827 3.161986,0 6.113166,-0.93749 8.826754,-2.80308 l 0.209987,-0.14407 -1.548048,-3.69184 -0.314975,0.21976 c -2.32461,1.60429 -4.692646,2.39531 -7.124883,2.39531 -2.039483,0 -3.518331,-0.58188 -4.526912,-1.73118 -0.957379,-1.09097 -1.470129,-2.77445 -1.565129,-4.9957 l 14.711241,0 0.04151,-0.26372 c 0.202124,-1.28015 0.302761,-2.46145 0.302761,-3.54778 0,-2.72689 -0.791032,-5.07705 -2.37089,-7.00036 -1.596974,-1.94413 -3.976678,-2.91295 -7.041861,-2.91295 z m 53.824829,0 c -3.526686,0 -6.23415,1.02011 -8.035628,3.08142 -1.80148,2.06133 -2.678547,5.11929 -2.678547,9.13196 0,3.74643 0.828412,6.73868 2.514953,8.94152 l 0.0025,0.003 c 1.733459,2.21883 4.467275,3.31828 8.096686,3.31828 3.543562,0 6.26504,-1.02781 8.074695,-3.10585 1.809643,-2.07806 2.688318,-5.16181 2.688318,-9.20765 0,-3.99596 -0.870788,-7.03989 -2.663903,-9.09289 -1.79319,-2.05304 -4.488964,-3.06922 -7.999011,-3.06922 z m 12.86044,0.49811 0,4.02637 4.102056,0 5.320459,7.33243 -6.314236,8.09423 -3.208386,0 0,3.97508 11.876423,0 0,-3.97508 -4.094729,0 4.177751,-5.65498 4.54155,6.36795 0,3.26211 9.127086,0 0,-3.97508 -3.958,0 -5.962631,-7.8867 5.860081,-7.53996 3.35977,0 0,-4.02637 -11.827587,0 0,4.02637 4.045897,0 -3.728465,5.05675 -4.141132,-5.76973 0,-3.31339 -9.175907,0 z m -140.522268,3.4257 c 1.600192,0 2.811943,0.49864 3.718709,1.49921 l 0.0025,0 0,0.003 c 0.906078,0.96856 1.367352,2.27742 1.367352,3.9873 0,0.17427 -0.03481,0.43283 -0.06838,0.68611 l -10.596977,0 c 0.183552,-2.03155 0.699672,-3.58036 1.574896,-4.58063 0.928934,-1.06164 2.232794,-1.59443 4.001947,-1.59443 z m 73.836999,0 c 1.600193,0 2.811942,0.49864 3.718708,1.49921 l 0.0025,0 0,0.003 c 0.90608,0.96856 1.367352,2.27742 1.367352,3.9873 0,0.17427 -0.0348,0.43283 -0.06838,0.68611 l -10.596977,0 c 0.183552,-2.03155 0.699672,-3.58036 1.574897,-4.58063 0.928933,-1.06164 2.232794,-1.59443 4.001946,-1.59443 z m 53.77356,0.20023 c 2.271099,0 3.792968,0.66214 4.692939,1.96555 l 0.0025,0.003 c 0.907985,1.2837 1.394205,3.3232 1.394205,6.12134 0,2.76436 -0.482608,4.81976 -1.396654,6.17506 l -0.0025,0.003 c -0.866767,1.30013 -2.368122,1.96068 -4.639233,1.96068 -2.235244,0 -3.760951,-0.66195 -4.695376,-1.968 -0.911673,-1.35444 -1.394219,-3.42607 -1.394219,-6.22146 0,-2.76436 0.485535,-4.78538 1.394219,-6.07006 l 0.0025,-0.003 c 0.900933,-1.30479 2.404814,-1.96556 4.64167,-1.96556 z m -32.513674,4.00194 5.586609,0 c 2.540968,0 4.40308,0.52256 5.6159,1.51629 1.212809,0.99373 1.823958,2.46625 1.823958,4.5196 0,1.95103 -0.59901,3.34937 -1.794655,4.29493 -1.19563,0.94557 -3.036002,1.4455 -5.545103,1.4455 l -5.686709,0 0,-11.77632 z"
           id="path4366"
           inkscape:connector-curvature="0" />
      </g>
      <path
         d="m 150.08272,974.88538 c 0.28537,1.7272 -0.89406,3.35058 -2.61946,3.61991 -1.72539,0.28617 -3.34299,-0.89334 -3.61937,-2.61268 -0.28087,-1.73148 0.89407,-3.35486 2.61497,-3.62688 1.72764,-0.28168 3.35198,0.89424 3.62386,2.61965"
         style="fill:#45beed;fill-opacity:1;fill-rule:nonzero;stroke:none"
         id="path3360"
         inkscape:connector-curvature="0" />
      <g
         transform="matrix(0.22466169,5.6520006e-6,-5.6520006e-6,-0.22466169,-202.62977,1048.9219)"
         clip-path="url(#clipPath3372)"
         id="g3370">
        <path
           inkscape:connector-curvature="0"
           id="path3376"
           style="fill:#4abeea;fill-opacity:1;fill-rule:nonzero;stroke:none"
           d="m 1413.79,344.719 -8.58,-8.582 c 6.05,-6.059 9.02,-13.887 9.04,-21.824 -0.02,-7.938 -2.99,-15.758 -9.02,-21.797 -6.06,-6.043 -13.89,-9.02 -21.82,-9.036 -7.95,0.016 -15.78,2.993 -21.84,9.047 -6.04,6.047 -9.02,13.871 -9.03,21.805 0.01,7.934 2.99,15.754 9.03,21.805 l 0.31,0.304 -0.32,-0.308 c 6.07,6.047 13.9,9.027 21.84,9.039 7.94,-0.016 15.76,-2.984 21.8,-9.031 l 0.01,-0.004 8.58,8.582 8.58,8.574 c -10.72,10.75 -24.9,16.164 -38.97,16.148 -14.07,0.016 -28.25,-5.406 -38.99,-16.136 l 0.32,0.316 -0.32,-0.324 c -10.74,-10.727 -16.15,-24.902 -16.14,-38.965 -0.01,-14.062 5.4,-28.238 16.14,-38.969 10.74,-10.746 24.93,-16.168 39,-16.152 14.07,-0.012 28.24,5.406 38.98,16.141 10.73,10.722 16.14,24.894 16.13,38.961 0.01,14.062 -5.4,28.246 -16.15,38.984 l 0.32,-0.317 -0.32,0.313 -8.58,-8.574" />
        <path
           inkscape:connector-curvature="0"
           id="path3378"
           style="fill:#4abeea;fill-opacity:1;fill-rule:nonzero;stroke:none"
           d="m 1444.18,375.129 -8.58,-8.582 c 14.45,-14.457 21.62,-33.277 21.63,-52.215 -0.01,-18.937 -7.19,-37.762 -21.63,-52.215 -14.44,-14.429 -33.28,-21.609 -52.22,-21.625 -18.93,0.016 -37.75,7.18 -52.2,21.625 -14.45,14.453 -21.61,33.266 -21.63,52.188 0.02,18.937 7.2,37.761 21.65,52.215 14.46,14.453 33.28,21.632 52.22,21.648 18.92,-0.016 37.72,-7.18 52.18,-21.621 l 8.58,8.582 8.58,8.582 c -19.13,19.129 -44.29,28.738 -69.34,28.727 -25.08,0.011 -50.26,-9.618 -69.38,-28.754 -19.14,-19.121 -28.77,-44.305 -28.76,-69.379 -0.01,-25.055 9.6,-50.223 28.74,-69.352 19.13,-19.137 44.3,-28.742 69.36,-28.73 25.08,-0.012 50.26,9.605 69.38,28.73 19.13,19.129 28.76,44.309 28.74,69.379 0.02,25.066 -9.6,50.246 -28.74,69.379 l -8.58,-8.582" />
        <path
           inkscape:connector-curvature="0"
           id="path3380"
           style="fill:#4abeea;fill-opacity:1;fill-rule:nonzero;stroke:none"
           d="m 1474.57,405.523 -8.58,-8.582 c 22.85,-22.851 34.22,-52.664 34.23,-82.589 -0.01,-29.942 -11.4,-59.778 -34.23,-82.625 -22.84,-22.832 -52.67,-34.207 -82.61,-34.219 -29.92,0.012 -59.74,11.375 -82.59,34.219 -22.84,22.839 -34.2,52.644 -34.22,82.566 0.02,29.945 11.4,59.781 34.24,82.637 22.84,22.832 52.67,34.211 82.61,34.222 29.92,-0.011 59.73,-11.371 82.57,-34.211 l 0,0 8.58,8.582 8.58,8.579 c -27.51,27.535 -63.68,41.336 -99.73,41.324 -36.07,0.012 -72.25,-13.813 -99.77,-41.336 -27.54,-27.527 -41.36,-63.719 -41.35,-99.797 -0.01,-36.051 13.79,-72.219 41.33,-99.73 27.52,-27.536 63.7,-41.34 99.75,-41.329 36.07,-0.011 72.25,13.809 99.77,41.329 27.53,27.527 41.35,63.71 41.34,99.789 0.02,36.054 -13.79,72.23 -41.34,99.753 l 0.45,-0.449 -0.45,0.446 -8.58,-8.579" />
        <path
           inkscape:connector-curvature="0"
           id="path3382"
           style="fill:#45beed;fill-opacity:1;fill-rule:nonzero;stroke:none"
           d="m 1395.06,317.23 c 1.37,-8.496 -4.38,-16.41 -12.83,-17.746 -8.44,-1.359 -16.37,4.414 -17.72,12.797 -1.37,8.465 4.4,16.41 12.83,17.735 8.44,1.375 16.37,-4.375 17.72,-12.786" />
      </g>
    </g>
  </g>
</svg>
