<?xml version="1.0" encoding="utf-8"?>
<!-- Generator: Adobe Illustrator 17.0.0, SVG Export Plug-In . SVG Version: 6.00 Build 0)  -->
<!DOCTYPE svg PUBLIC "-//W3C//DTD SVG 1.1//EN" "http://www.w3.org/Graphics/SVG/1.1/DTD/svg11.dtd">
<svg version="1.1" xmlns="http://www.w3.org/2000/svg" xmlns:xlink="http://www.w3.org/1999/xlink" x="0px" y="0px" width="1000px"
	 height="1000px" viewBox="0 0 1000 1000" enable-background="new 0 0 1000 1000" xml:space="preserve">
<g id="heller_Hintergrund">
	<g id="XMLID_173_">
		<path id="XMLID_208_" fill="#1D3AAD" d="M860.827,768.758v3.077h2.232v3.057c0.006,0.272-0.008,0.565-0.057,0.8
			c-0.087,0.571-0.645,1.539-2.231,1.539c-1.578,0-2.123-0.968-2.218-1.539c-0.038-0.234-0.059-0.528-0.059-0.8v-9.649
			c0-0.34,0.027-0.714,0.097-0.996c0.11-0.514,0.58-1.529,2.167-1.529c1.67,0,2.085,1.07,2.178,1.529
			c0.062,0.305,0.065,0.814,0.065,0.814v1.171h5.487v-0.691c0,0,0.027-0.725-0.041-1.398c-0.413-3.959-3.78-5.213-7.642-5.213
			c-3.867,0-7.167,1.265-7.643,5.213c-0.046,0.36-0.111,1.01-0.111,1.398v8.874c0,0.386,0.011,0.686,0.087,1.391
			c0.359,3.851,3.803,5.215,7.653,5.215c3.876,0,7.299-1.364,7.663-5.215c0.065-0.705,0.07-1.005,0.079-1.391v-5.657H860.827z
			 M822.996,759.499h-5.513v15.615c0.009,0.274,0,0.577-0.046,0.802c-0.114,0.525-0.572,1.533-2.092,1.533
			c-1.5,0-1.968-1.008-2.078-1.533c-0.055-0.225-0.062-0.529-0.055-0.802v-15.615h-5.508v15.13c-0.006,0.39,0.026,1.185,0.049,1.395
			c0.38,3.943,3.584,5.224,7.591,5.224c4.012,0,7.218-1.281,7.604-5.224c0.033-0.211,0.072-1.005,0.048-1.395v-15.13H822.996z
			 M772.37,759.499l-2.749,16.499l-2.747-16.499h-8.889l-0.472,21.109h5.446l0.148-19.54l3.743,19.54h5.527l3.748-19.54l0.149,19.54
			h5.461l-0.488-21.109H772.37z M739.463,759.499l-4.039,21.109h5.886l3.043-19.54l2.966,19.54h5.847l-4.02-21.109H739.463z
			 M842.252,776.492l-5.13-16.993h-8.085v20.886h5.348l-0.31-17.538l5.51,17.538h7.753v-20.886h-5.383L842.252,776.492z
			 M792.784,764.991c-0.1-0.416-0.071-0.86-0.021-1.088c0.157-0.677,0.626-1.416,1.973-1.416c1.258,0,1.997,0.76,1.997,1.899v1.293
			h5.372v-1.472c0-4.547-4.208-5.261-7.256-5.261c-3.838,0-6.971,1.225-7.543,4.647c-0.151,0.931-0.189,1.76,0.051,2.814
			c0.933,4.265,8.602,5.504,9.714,8.201c0.195,0.513,0.14,1.164,0.038,1.549c-0.165,0.703-0.653,1.408-2.099,1.408
			c-1.358,0-2.172-0.754-2.172-1.893l-0.002-2.024h-5.78v1.61c0,4.667,3.77,6.074,7.836,6.074c3.889,0,7.103-1.29,7.62-4.779
			c0.246-1.806,0.059-2.983-0.041-3.425C801.571,768.753,793.4,767.436,792.784,764.991 M721.928,764.94
			c-0.103-0.425-0.081-0.874-0.022-1.108c0.148-0.673,0.62-1.424,1.994-1.424c1.276,0,2.026,0.768,2.026,1.916v1.307h5.432v-1.482
			c0-4.59-4.271-5.323-7.353-5.323c-3.87,0-7.033,1.245-7.609,4.692c-0.16,0.946-0.187,1.779,0.042,2.846
			c0.945,4.316,8.687,5.563,9.814,8.295c0.211,0.507,0.146,1.156,0.041,1.556c-0.178,0.713-0.669,1.425-2.129,1.425
			c-1.358,0-2.173-0.767-2.173-1.918l-0.008-2.033h-5.847v1.615c0,4.719,3.826,6.14,7.918,6.14c3.937,0,7.172-1.302,7.699-4.833
			c0.261-1.824,0.065-3.008-0.025-3.457C730.811,768.724,722.549,767.411,721.928,764.94"/>
		<g id="XMLID_174_">
			<path id="XMLID_204_" fill="#1D1D1B" d="M724.204,738.484l-1.444,0.29c0.28,0.477,0.419,0.975,0.419,1.491
				c0,1.662-1.398,2.916-3.084,2.916c-0.596,0-1.154-0.163-1.658-0.469c-0.494,0.371-0.773,0.687-0.82,0.822
				c0,0.28,0.085,1.102,0.912,1.164l3.857,0.29c1.09,0.081,1.658,0.822,1.658,2.24c0,1.599-1.434,2.574-3.904,2.574
				c-2.449,0-4.006-1.011-4.006-2.548c0-0.604,0.504-1.48,0.83-1.986c-0.409-0.451-0.633-1.039-0.633-1.734
				c0-0.614,0.54-1.202,1.182-1.69c-0.336-0.505-0.522-1.055-0.522-1.652c-0.01-1.654,1.388-2.927,3.094-2.927
				c0.548,0,1.08,0.143,1.555,0.415l2.292-0.461c0.363-0.072,0.717,0.145,0.792,0.497
				C724.8,738.069,724.577,738.412,724.204,738.484z M722.295,746.216l-3.867-0.28c-0.103-0.01-0.214-0.028-0.344-0.054
				c-0.363,0.55-0.671,1.164-0.671,1.372c0,0.912,1.454,1.311,2.729,1.311c0.755,0,2.628-0.119,2.628-1.338
				C722.77,746.289,722.555,746.235,722.295,746.216z M720.087,738.44c-1.025,0-1.891,0.749-1.891,1.742
				c0.008,1.011,0.856,1.825,1.899,1.825c1.007,0,1.873-0.731,1.873-1.742C721.969,739.28,721.102,738.44,720.087,738.44z"/>
			<path id="XMLID_201_" fill="#1D1D1B" d="M733.586,742.287l-6.147,0.371c0.214,1.654,1.378,2.546,3.009,2.546
				c0.604,0,1.192-0.099,1.75-0.306c0.355-0.127,0.745,0.01,0.884,0.342c0.149,0.334-0.008,0.715-0.352,0.85
				c-0.691,0.27-1.537,0.415-2.282,0.415c-2.647,0-4.379-1.789-4.379-4.326v-0.705c0-2.095,1.434-4.189,4.173-4.189
				c2.449,0,3.968,1.661,3.968,4.363C734.211,741.989,733.941,742.269,733.586,742.287z M732.841,741.04
				c-0.149-1.255-0.763-2.457-2.598-2.457c-1.891,0-2.767,1.356-2.832,2.784L732.841,741.04z"/>
			<path id="XMLID_199_" fill="#1D1D1B" d="M741.816,735.332c0,0-0.364-0.091-1.025-0.091c-1.249,0-1.994,0.713-1.984,1.924
				l0.008,1.454h1.855c0.391,0,0.707,0.308,0.707,0.687c0,0.381-0.316,0.695-0.707,0.695h-1.855v5.682
				c0,0.381-0.316,0.687-0.707,0.687c-0.391,0-0.709-0.306-0.709-0.687l-0.008-5.682h-1.015c-0.393,0-0.709-0.314-0.709-0.695
				c0-0.379,0.316-0.687,0.709-0.687h1.015v-1.444c0-1.978,1.37-3.305,3.4-3.305c0.856,0,1.352,0.117,1.406,0.135
				c0.373,0.099,0.596,0.487,0.493,0.848C742.579,735.223,742.189,735.441,741.816,735.332z"/>
			<path id="XMLID_194_" fill="#1D1D1B" d="M747.512,746.505c-2.58,0-4.528-1.968-4.528-4.578c0-2.647,1.948-4.642,4.528-4.642
				c2.58,0,4.536,1.968,4.536,4.578C752.048,744.509,750.092,746.505,747.512,746.505z M747.512,738.665
				c-1.799,0-3.112,1.372-3.112,3.261c0,1.851,1.313,3.196,3.112,3.196c1.797,0,3.112-1.372,3.112-3.261
				C750.624,740.011,749.309,738.665,747.512,738.665z M746.05,734.907c-0.318,0.352-0.858,0.407-1.221,0.101
				c-0.363-0.298-0.411-0.832-0.103-1.184l0.354-0.397c0.316-0.352,0.856-0.397,1.221-0.099c0.363,0.298,0.409,0.83,0.103,1.182
				L746.05,734.907z M749.953,734.907c-0.308,0.363-0.866,0.399-1.23,0.101c-0.363-0.298-0.401-0.822-0.093-1.184l0.344-0.397
				c0.316-0.362,0.866-0.397,1.229-0.099c0.365,0.298,0.401,0.822,0.095,1.182L749.953,734.907z"/>
			<path id="XMLID_192_" fill="#1D1D1B" d="M758.942,738.845c0,0-0.336-0.179-0.755-0.179c-0.465,0-1.462,0.316-2.151,0.614v6.403
				c0,0.381-0.316,0.687-0.709,0.687c-0.391,0-0.707-0.306-0.707-0.687v-7.569c0-0.379,0.316-0.687,0.707-0.687
				c0.29,0,0.55,0.173,0.653,0.425c0.653-0.262,1.565-0.56,2.207-0.56c0.802,0,1.416,0.334,1.483,0.371
				c0.334,0.189,0.447,0.614,0.252,0.938C759.716,738.935,759.287,739.044,758.942,738.845z"/>
			<path id="XMLID_189_" fill="#1D1D1B" d="M769.207,745.683c0,0.381-0.316,0.687-0.707,0.687c-0.27,0-0.503-0.145-0.624-0.352
				c-0.596,0.199-1.547,0.488-2.226,0.488c-2.657,0-4.417-1.861-4.417-4.625c0-2.753,1.76-4.614,4.417-4.614
				c0.643,0,1.537,0.252,2.141,0.451v-3.17c0-0.379,0.318-0.687,0.709-0.687c0.391,0,0.707,0.308,0.707,0.687V745.683z
				 M767.791,739.153c-0.596-0.218-1.63-0.506-2.141-0.506c-1.891,0-3.001,1.211-3.001,3.233c0,2.032,1.11,3.243,3.001,3.243
				c0.512,0,1.545-0.288,2.141-0.514V739.153z"/>
			<path id="XMLID_186_" fill="#1D1D1B" d="M779.372,742.287l-6.147,0.371c0.213,1.654,1.378,2.546,3.009,2.546
				c0.604,0,1.192-0.099,1.75-0.306c0.354-0.127,0.745,0.01,0.884,0.342c0.149,0.334-0.008,0.715-0.352,0.85
				c-0.691,0.27-1.537,0.415-2.282,0.415c-2.647,0-4.379-1.789-4.379-4.326v-0.705c0-2.095,1.434-4.189,4.173-4.189
				c2.449,0,3.968,1.661,3.968,4.363C779.996,741.989,779.727,742.269,779.372,742.287z M778.627,741.04
				c-0.149-1.255-0.763-2.457-2.598-2.457c-1.891,0-2.768,1.356-2.832,2.784L778.627,741.04z"/>
			<path id="XMLID_184_" fill="#1D1D1B" d="M786.698,738.845c0,0-0.336-0.179-0.755-0.179c-0.465,0-1.462,0.316-2.151,0.614v6.403
				c0,0.381-0.316,0.687-0.709,0.687c-0.391,0-0.707-0.306-0.707-0.687v-7.569c0-0.379,0.316-0.687,0.707-0.687
				c0.29,0,0.55,0.173,0.653,0.425c0.653-0.262,1.565-0.56,2.207-0.56c0.802,0,1.416,0.334,1.483,0.371
				c0.334,0.189,0.447,0.614,0.252,0.938C787.471,738.935,787.042,739.044,786.698,738.845z"/>
			<path id="XMLID_182_" fill="#1D1D1B" d="M795.103,746.235c-0.075,0.026-0.745,0.28-1.396,0.28c-2.143,0-3.225-1.174-3.225-3.486
				v-4.218h-1.164c-0.391,0-0.707-0.308-0.707-0.687c0-0.381,0.316-0.687,0.707-0.687h1.164v-2.258c0-0.381,0.318-0.695,0.709-0.695
				c0.391,0,0.707,0.314,0.707,0.695v2.258h2.153c0.391,0,0.707,0.306,0.707,0.687c0,0.379-0.316,0.687-0.707,0.687h-2.153v4.218
				c0,1.76,0.663,2.105,1.809,2.105c0.324,0,0.753-0.137,0.884-0.181c0.363-0.135,0.773,0.036,0.912,0.389
				C795.653,745.701,795.467,746.098,795.103,746.235z"/>
			<path id="XMLID_180_" fill="#1D1D1B" d="M805.651,745.963c-0.113,0.244-0.373,0.407-0.653,0.407c-0.28,0-0.54-0.163-0.653-0.407
				l-3.464-7.569c-0.159-0.352,0-0.757,0.363-0.912c0.355-0.153,0.773,0,0.932,0.352l2.822,6.151l2.814-6.151
				c0.157-0.352,0.586-0.506,0.94-0.352c0.363,0.155,0.522,0.56,0.363,0.912L805.651,745.963z"/>
			<path id="XMLID_177_" fill="#1D1D1B" d="M815.22,746.505c-2.58,0-4.528-1.968-4.528-4.578c0-2.647,1.948-4.642,4.528-4.642
				c2.58,0,4.536,1.968,4.536,4.578C819.756,744.509,817.8,746.505,815.22,746.505z M815.22,738.665
				c-1.799,0-3.112,1.372-3.112,3.261c0,1.851,1.313,3.196,3.112,3.196c1.797,0,3.112-1.372,3.112-3.261
				C818.332,740.011,817.017,738.665,815.22,738.665z"/>
			<path id="XMLID_175_" fill="#1D1D1B" d="M830.052,745.683c0,0.381-0.316,0.687-0.707,0.687c-0.393,0-0.709-0.306-0.709-0.687
				v-4.868c0-1.499-0.614-2.149-2.04-2.149c-1.406,0-2.488,0.866-2.85,1.229v5.789c0,0.381-0.316,0.687-0.707,0.687
				c-0.393,0-0.709-0.306-0.709-0.687v-7.569c0-0.379,0.316-0.687,0.709-0.687c0.391,0,0.707,0.308,0.707,0.687v0.091
				c0.707-0.469,1.696-0.912,2.85-0.912c2.236,0,3.456,1.255,3.456,3.523V745.683z"/>
		</g>
	</g>
	
		<rect x="218.395" y="171.238" transform="matrix(-0.3807 -0.9247 0.9247 -0.3807 270.0202 1077.1711)" fill="#1AF59E" width="554.67" height="553.849"/>
	
		<rect x="218.395" y="171.238" transform="matrix(-0.0746 -0.9972 0.9972 -0.0746 85.8174 975.9586)" fill="#63B9E3" width="554.67" height="553.849"/>
	
		<rect x="218.395" y="171.238" transform="matrix(0.2937 -0.9559 0.9559 0.2937 -78.2622 790.4055)" fill="#668CC2" width="554.67" height="553.849"/>
	
		<rect x="220.048" y="164.246" transform="matrix(0.7071 -0.7071 0.7071 0.7071 -166.9782 483.3295)" fill="#2F356E" width="559.787" height="557.959"/>
	<g>
		<g>
			<path fill="#F7F7F7" d="M294.066,454.599c-5.668,4.978-13.094,7.466-22.282,7.466c-11.792,0-20.675-4.325-26.647-12.979
				c-5.131-7.424-7.696-17.342-7.696-29.747s2.642-22.471,7.925-30.206c6.049-8.73,15.085-13.094,27.107-13.094
				c8.192,0,15.122,2.257,20.79,6.774c4.058,3.217,6.928,7.161,8.614,11.832l-3.56,1.837c-3.754-11.333-12.598-16.999-26.532-16.999
				c-10.337,0-18.187,4.249-23.546,12.748c-4.519,7.2-6.776,16.234-6.776,27.107c0,10.952,2.182,19.909,6.547,26.876
				c5.206,8.426,12.939,12.636,23.201,12.636c8.269,0,14.968-2.222,20.1-6.662c3.981-3.445,6.622-7.885,7.925-13.324l3.331,1.723
				C301.109,446.179,298.276,450.85,294.066,454.599z"/>
			<path fill="#F7F7F7" d="M321.057,409.001c4.594-6.278,11.256-9.419,19.985-9.419c8.729,0,15.428,3.141,20.101,9.419
				c4.134,5.513,6.202,12.79,6.202,21.824c0,9.035-2.068,16.349-6.202,21.936c-4.749,6.128-11.448,9.188-20.101,9.188
				c-8.729,0-15.391-3.061-19.985-9.188c-4.134-5.586-6.203-12.901-6.203-21.936C314.854,421.791,316.923,414.514,321.057,409.001z
				 M323.698,450.235c3.981,5.743,9.763,8.615,17.343,8.615c7.581,0,13.399-2.872,17.459-8.615
				c3.445-4.899,5.167-11.372,5.167-19.41c0-7.962-1.723-14.432-5.167-19.41c-4.061-5.744-9.878-8.615-17.459-8.615
				c-7.657,0-13.438,2.872-17.343,8.615c-3.445,4.978-5.169,11.448-5.169,19.41C318.53,438.864,320.253,445.337,323.698,450.235z"/>
			<path fill="#F7F7F7" d="M430.056,460.457h-3.56v-13.209c-3.906,9.802-11.41,14.701-22.512,14.701
				c-8.805,0-15.504-3.061-20.1-9.188c-4.134-5.513-6.201-12.825-6.201-21.936c0-9.034,2.067-16.312,6.201-21.824
				c4.671-6.278,11.372-9.419,20.1-9.419c11.332,0,18.837,4.786,22.512,14.358v-35.952h3.56V460.457z M421.327,411.415
				c-3.906-5.744-9.687-8.615-17.344-8.615c-7.657,0-13.438,2.872-17.344,8.615c-3.521,4.901-5.282,11.368-5.282,19.41
				c0,8.039,1.723,14.512,5.169,19.41c3.979,5.743,9.8,8.615,17.457,8.615c7.656,0,13.438-2.872,17.344-8.615
				c3.446-4.899,5.169-11.372,5.169-19.41C426.496,422.863,424.773,416.393,421.327,411.415z"/>
			<path fill="#F7F7F7" d="M468.302,461.949c-8.499,0-14.971-3.138-19.41-9.415c-3.906-5.59-5.858-12.825-5.858-21.709
				c0-8.881,1.953-16.081,5.858-21.594c4.439-6.431,10.911-9.649,19.41-9.649c8.345,0,14.703,2.872,19.066,8.615
				c3.981,5.132,5.972,12.021,5.972,20.675v2.183h-46.517v0.919c0,7.35,1.724,13.478,5.169,18.376c3.906,5.667,9.342,8.5,16.31,8.5
				c9.647,0,16.195-4.517,19.641-13.555l2.987,1.61c-1.533,4.06-3.946,7.389-7.237,9.992
				C479.404,460.268,474.274,461.949,468.302,461.949z M489.436,427.723c0-6.967-1.647-12.71-4.94-17.227
				c-3.675-5.129-8.844-7.696-15.505-7.696c-6.891,0-12.29,2.488-16.196,7.466c-3.445,4.517-5.398,10.337-5.857,17.458H489.436z"/>
			<path fill="#F7F7F7" d="M499.083,377.876h3.906l20.214,75.688l20.444-56.047h3.677l20.558,56.047l20.1-75.688h3.906
				l-22.053,82.581h-3.904l-20.446-57.542l-20.444,57.542h-3.904L499.083,377.876z"/>
			<path fill="#F7F7F7" d="M620.945,461.949c-8.499,0-14.971-3.138-19.41-9.415c-3.906-5.59-5.859-12.825-5.859-21.709
				c0-8.881,1.953-16.081,5.859-21.594c4.439-6.431,10.911-9.649,19.41-9.649c8.345,0,14.703,2.872,19.066,8.615
				c3.981,5.132,5.972,12.021,5.972,20.675v2.183h-46.517v0.919c0,7.35,1.724,13.478,5.169,18.376c3.906,5.667,9.342,8.5,16.31,8.5
				c9.647,0,16.195-4.517,19.641-13.555l2.987,1.61c-1.533,4.06-3.946,7.389-7.237,9.992
				C632.048,460.268,626.918,461.949,620.945,461.949z M642.08,427.723c0-6.967-1.647-12.71-4.94-17.227
				c-3.676-5.129-8.844-7.696-15.505-7.696c-6.891,0-12.29,2.488-16.196,7.466c-3.445,4.517-5.398,10.337-5.857,17.458H642.08z"/>
			<path fill="#F7F7F7" d="M681.015,461.949c-8.5,0-14.971-3.138-19.41-9.415c-3.906-5.59-5.858-12.825-5.858-21.709
				c0-8.881,1.953-16.081,5.858-21.594c4.439-6.431,10.91-9.649,19.41-9.649c8.345,0,14.702,2.872,19.066,8.615
				c3.981,5.132,5.972,12.021,5.972,20.675v2.183h-46.516v0.919c0,7.35,1.724,13.478,5.169,18.376c3.905,5.667,9.341,8.5,16.31,8.5
				c9.647,0,16.194-4.517,19.641-13.555l2.987,1.61c-1.533,4.06-3.946,7.389-7.237,9.992
				C692.118,460.268,686.988,461.949,681.015,461.949z M702.15,427.723c0-6.967-1.647-12.71-4.94-17.227
				c-3.675-5.129-8.844-7.696-15.504-7.696c-6.891,0-12.29,2.488-16.196,7.466c-3.445,4.517-5.398,10.337-5.857,17.458H702.15z"/>
			<path fill="#F7F7F7" d="M718.803,377.989h3.675v56.854l34.342-33.996h4.48l-21.709,21.709l25.153,37.902h-4.135l-23.545-35.376
				l-14.587,14.128v21.248h-3.675V377.989z"/>
			<circle fill="#F7F7F7" cx="780.089" cy="456.968" r="3.618"/>
		</g>
		<g>
			<g>
				<path fill="#F7F7F7" d="M417.279,514.672h6.825v-13.384c0-1.215,0.044-2.469,0.044-2.469h-0.089c0,0-0.405,0.899-1.257,1.699
					l-1.934,1.758l-4.534-4.85l8.668-8.129h6.781v25.376h6.872v6.737h-21.378V514.672z"/>
				<path fill="#F7F7F7" d="M440.605,506.582c0-8.712,5.344-17.829,15.315-17.829c4.489,0,7.095,1.393,7.095,1.393l-2.111,6.737
					c0,0-2.109-0.938-4.401-0.938c-3.773,0-5.929,2.331-6.917,5.294h0.091c0.763-0.533,2.874-1.116,4.401-1.116
					c6.692,0,10.51,5.472,10.51,11.004c0,5.433-3.998,10.816-10.959,10.816C447.161,521.941,440.605,517.052,440.605,506.582z
					 M456.863,511.165c0-2.292-1.393-4.712-4.852-4.712c-1.795,0-3.324,0.444-3.324,1.926c0,3.823,2.697,6.381,4.941,6.381
					C455.604,514.76,456.863,513.052,456.863,511.165z"/>
			</g>
			<path fill="#F7F7F7" d="M259.412,514.797H249.36l-1.938,6.761h-8.114l10.953-32.23h8.294l10.953,32.23h-8.114L259.412,514.797z
				 M254.363,496.677c0,0-0.721,3.516-1.307,5.545l-1.848,6.265h6.356l-1.803-6.265c-0.586-2.03-1.307-5.545-1.307-5.545H254.363z"
				/>
			<path fill="#F7F7F7" d="M269.42,489.328h8.294l4.057,20.15c0.406,1.983,0.406,3.381,0.406,3.381h0.091
				c0,0,0.045-1.398,0.541-3.381l4.958-20.15h6.356l4.823,20.15c0.496,1.983,0.541,3.381,0.541,3.381h0.091c0,0,0-1.398,0.406-3.381
				l4.417-20.15h8.159l-8.159,32.23h-8.79l-4.057-16.271c-0.496-2.076-0.631-3.786-0.631-3.786h-0.09c0,0-0.136,1.711-0.631,3.786
				l-4.057,16.271h-8.88L269.42,489.328z"/>
			<path fill="#F7F7F7" d="M330.75,514.797h-10.052l-1.939,6.761h-8.114l10.953-32.23h8.294l10.953,32.23h-8.114L330.75,514.797z
				 M325.702,496.677c0,0-0.721,3.516-1.307,5.545l-1.848,6.265h6.356l-1.803-6.265c-0.586-2.03-1.307-5.545-1.307-5.545H325.702z"
				/>
			<path fill="#F7F7F7" d="M344.03,489.328h11.224c3.29,0,4.868,0.227,6.266,0.768c3.651,1.396,5.95,4.688,5.95,9.375
				c0,3.426-1.623,7.166-4.823,8.789v0.092c0,0,0.451,0.585,1.217,1.937l6.266,11.269h-8.79l-5.724-10.862h-3.696v10.862h-7.889
				V489.328z M355.344,503.933c2.524,0,4.102-1.396,4.102-3.967c0-2.432-0.902-3.874-4.868-3.874h-2.659v7.841H355.344z"/>
			<path fill="#F7F7F7" d="M374.161,489.328h11.449c10.142,0,16.633,5.906,16.633,16.047c0,10.143-6.491,16.183-16.633,16.183
				h-11.449V489.328z M385.295,514.797c5.454,0,8.79-3.246,8.79-9.422c0-6.13-3.471-9.283-8.79-9.283h-3.245v18.705H385.295z"/>
		</g>
	</g>
	<rect x="140.194" y="870.988" fill="none" width="711.071" height="117.012"/>
	<text transform="matrix(1 0 0 1 250.1625 909.9821)" fill="#2F356E" font-family="'CoreHumanistSans-Bold'" font-size="60">Gewinnerprojekt</text>
</g>
<g id="dunkler_Hintergrund">
</g>
</svg>
