<svg id="Ebene_1" data-name="Ebene 1" xmlns="http://www.w3.org/2000/svg" width="260mm" height="150mm" viewBox="0 0 737.01 425.2"><defs><style>.cls-1{fill:#fff;}.cls-2{fill:#43577c;}.cls-3{fill:#2f356e;}.cls-4{fill:#2c4390;}.cls-5{fill:#232321;}</style></defs><title>CWA Logo 2016 </title><rect class="cls-1" width="737.01" height="425.2"/><path class="cls-2" d="M124.43,218.92q-9.58,8.42-25.12,8.42-19.94,0-30-14.63-8.68-12.55-8.68-33.54t8.93-34.05q10.23-14.76,30.56-14.76,13.85,0,23.44,7.64a29.6,29.6,0,0,1,9.71,13.34l-4,2.07q-6.35-19.16-29.91-19.16-17.48,0-26.54,14.37-7.64,12.18-7.64,30.56t7.38,30.3q8.8,14.25,26.15,14.24,14,0,22.66-7.51a27.89,27.89,0,0,0,8.93-15l3.76,1.94A31.19,31.19,0,0,1,124.43,218.92Z"/><path class="cls-2" d="M154.86,167.52q7.77-10.62,22.53-10.62T200,167.52q7,9.32,7,24.6t-7,24.73q-8,10.36-22.66,10.36t-22.53-10.36q-7-9.45-7-24.73T154.86,167.52Zm3,46.48q6.73,9.71,19.55,9.71T197.07,214q5.82-8.28,5.83-21.88t-5.83-21.88q-6.87-9.71-19.68-9.71t-19.55,9.71Q152,178.66,152,192.12T157.83,214Z"/><path class="cls-2" d="M277.73,225.53h-4V210.63q-6.6,16.58-25.38,16.57-14.89,0-22.66-10.36-7-9.32-7-24.73t7-24.6q7.9-10.62,22.66-10.62,19.16,0,25.38,16.19V132.56h4v93Zm-9.84-55.29q-6.6-9.71-19.55-9.71t-19.55,9.71q-6,8.29-6,21.88T228.66,214q6.73,9.71,19.68,9.71T267.89,214q5.83-8.28,5.83-21.88T267.89,170.24Z"/><path class="cls-2" d="M320.85,227.21q-14.37,0-21.88-10.61-6.6-9.45-6.6-24.47t6.6-24.34q7.51-10.88,21.88-10.88,14.11,0,21.49,9.71,6.73,8.68,6.73,23.31v2.46H296.64v1q0,12.43,5.83,20.72a21.1,21.1,0,0,0,18.39,9.58q16.31,0,22.14-15.28l3.37,1.82a25.59,25.59,0,0,1-8.16,11.26A27.22,27.22,0,0,1,320.85,227.21Zm23.83-38.58q0-11.78-5.57-19.42-6.21-8.67-17.48-8.68-11.65,0-18.26,8.42-5.82,7.64-6.6,19.68h47.91Z"/><path class="cls-2" d="M355.55,132.43H360l22.79,85.33,23-63.18h4.14l23.18,63.18,22.66-85.33h4.4l-24.86,93.1h-4.4l-23-64.87-23,64.87h-4.4Z"/><path class="cls-2" d="M492.93,227.21q-14.37,0-21.88-10.61-6.6-9.45-6.6-24.47t6.6-24.34q7.51-10.88,21.88-10.88,14.11,0,21.49,9.71,6.73,8.68,6.73,23.31v2.46H468.72v1q0,12.43,5.83,20.72a21.1,21.1,0,0,0,18.39,9.58q16.31,0,22.14-15.28l3.37,1.82a25.59,25.59,0,0,1-8.16,11.26A27.22,27.22,0,0,1,492.93,227.21Zm23.83-38.58q0-11.78-5.57-19.42-6.22-8.67-17.48-8.68-11.65,0-18.26,8.42-5.82,7.64-6.6,19.68h47.91Z"/><path class="cls-2" d="M560.65,227.21q-14.37,0-21.88-10.61-6.6-9.45-6.6-24.47t6.6-24.34q7.51-10.88,21.88-10.88,14.11,0,21.49,9.71,6.73,8.68,6.73,23.31v2.46H536.43v1q0,12.43,5.83,20.72a21.1,21.1,0,0,0,18.39,9.58q16.31,0,22.14-15.28l3.37,1.82A25.59,25.59,0,0,1,578,221.51,27.22,27.22,0,0,1,560.65,227.21Zm23.83-38.58q0-11.78-5.57-19.42-6.21-8.67-17.48-8.68-11.65,0-18.26,8.42-5.83,7.64-6.6,19.68h47.91Z"/><path class="cls-2" d="M603.25,132.56h4.14v64.09l38.71-38.32h5.05L626.68,182.8,655,225.53h-4.66l-26.54-39.88-16.44,15.93v24h-4.14v-93Z"/><circle class="cls-2" cx="672.34" cy="221.59" r="4.08"/><path class="cls-3" d="M263.33,286.64H271V271.55c0-1.37.05-2.78,0.05-2.78H271a6.75,6.75,0,0,1-1.42,1.92l-2.18,2-5.11-5.47L272,258h7.64v28.61h7.75v7.59h-24.1v-7.59Z"/><path class="cls-3" d="M289.63,277.52c0-9.82,6-20.1,17.27-20.1a18.25,18.25,0,0,1,8,1.57l-2.38,7.59a13.83,13.83,0,0,0-5-1.06c-4.25,0-6.68,2.63-7.8,6h0.1a11,11,0,0,1,5-1.26c7.54,0,11.85,6.17,11.85,12.4a12,12,0,0,1-12.35,12.19C297,294.84,289.63,289.33,289.63,277.52ZM308,282.69a5.07,5.07,0,0,0-5.47-5.31c-2,0-3.75.5-3.75,2.17,0,4.31,3,7.19,5.57,7.19A3.8,3.8,0,0,0,308,282.69Z"/><path class="cls-3" d="M85.36,286.78H74l-2.19,7.62H62.7L75,258.07H84.4l12.35,36.33H87.6Zm-5.69-20.43s-0.81,4-1.47,6.25l-2.08,7.06h7.16l-2-7.06c-0.66-2.29-1.47-6.25-1.47-6.25h-0.1Z"/><path class="cls-3" d="M96.64,258.07H106l4.57,22.72a21.06,21.06,0,0,1,.46,3.81h0.1a20.07,20.07,0,0,1,.61-3.81l5.59-22.72h7.16l5.44,22.72a20.07,20.07,0,0,1,.61,3.81h0.1a21.06,21.06,0,0,1,.46-3.81l5-22.72h9.2l-9.2,36.33h-9.91l-4.57-18.34a31,31,0,0,1-.71-4.27h-0.1a31.07,31.07,0,0,1-.71,4.27l-4.57,18.34h-10Z"/><path class="cls-3" d="M165.78,286.78H154.45l-2.19,7.62h-9.15l12.35-36.33h9.35l12.35,36.33H168Zm-5.69-20.43s-0.81,4-1.47,6.25l-2.08,7.06h7.16l-2-7.06c-0.66-2.29-1.47-6.25-1.47-6.25h-0.1Z"/><path class="cls-3" d="M180.76,258.07h12.65c3.71,0,5.49.26,7.06,0.87,4.12,1.57,6.71,5.28,6.71,10.57,0,3.86-1.83,8.08-5.44,9.91v0.1a20.73,20.73,0,0,1,1.37,2.18l7.06,12.7h-9.91l-6.45-12.25h-4.17v12.25h-8.89V258.07Zm12.75,16.46c2.85,0,4.62-1.57,4.62-4.47,0-2.74-1-4.37-5.49-4.37h-3v8.84h3.86Z"/><path class="cls-3" d="M214.72,258.07h12.91c11.43,0,18.75,6.66,18.75,18.09s-7.32,18.24-18.75,18.24H214.72V258.07Zm12.55,28.71c6.15,0,9.91-3.66,9.91-10.62s-3.91-10.47-9.91-10.47h-3.66v21.09h3.66Z"/><g id="_Gruppe_" data-name="&lt;Gruppe&gt;"><path id="_Zusammengesetzter_Pfad_" data-name="&lt;Zusammengesetzter Pfad&gt;" class="cls-4" d="M673,394.14v2h1.43v2a2.36,2.36,0,0,1,0,.51,1.52,1.52,0,0,1-2.84,0,3.36,3.36,0,0,1,0-.51v-6.17a2.84,2.84,0,0,1,.06-0.64,1.27,1.27,0,0,1,1.39-1,1.26,1.26,0,0,1,1.39,1,3.49,3.49,0,0,1,0,.52v0.75h3.51v-0.44a7.5,7.5,0,0,0,0-.89c-0.26-2.53-2.42-3.33-4.89-3.33s-4.58.81-4.89,3.33a8.69,8.69,0,0,0-.07.89v5.67a7.16,7.16,0,0,0,.06.89c0.23,2.46,2.43,3.33,4.89,3.33s4.67-.87,4.9-3.33c0-.45,0-0.64.05-0.89v-3.62H673Zm-24.19-5.92h-3.53v10a2.36,2.36,0,0,1,0,.51,1.4,1.4,0,0,1-2.67,0,2.12,2.12,0,0,1,0-.51v-10H639v9.68c0,0.25,0,.76,0,0.89,0.24,2.52,2.29,3.34,4.85,3.34s4.62-.82,4.86-3.34a6.51,6.51,0,0,0,0-.89v-9.68h0Zm-32.37,0-1.76,10.55-1.76-10.55h-5.68l-0.3,13.5h3.48l0.09-12.5,2.39,12.5h3.53l2.4-12.5,0.1,12.5h3.49l-0.31-13.5h-5.68Zm-21,0-2.58,13.5h3.76l1.95-12.5,1.9,12.5h3.74l-2.57-13.5h-6.19Zm65.73,10.87-3.28-10.87h-5.17v13.36h3.42l-0.2-11.22,3.52,11.22h5V388.22h-3.44Zm-31.63-7.35a1.7,1.7,0,0,1,0-.7,1.14,1.14,0,0,1,1.26-.91,1.16,1.16,0,0,1,1.28,1.21v0.83h3.44v-0.94c0-2.91-2.69-3.36-4.64-3.36-2.45,0-4.46.78-4.82,3a4.39,4.39,0,0,0,0,1.8c0.6,2.73,5.5,3.52,6.21,5.24a1.77,1.77,0,0,1,0,1,1.17,1.17,0,0,1-1.34.9,1.22,1.22,0,0,1-1.39-1.21v-1.29h-3.7v1c0,3,2.41,3.88,5,3.88s4.54-.82,4.87-3.06a6.33,6.33,0,0,0,0-2.19c-0.58-2.8-5.8-3.64-6.19-5.2m-45.31,0a1.65,1.65,0,0,1,0-.71,1.14,1.14,0,0,1,1.28-.91,1.17,1.17,0,0,1,1.3,1.23v0.84h3.47v-0.95c0-2.94-2.73-3.4-4.7-3.4-2.47,0-4.5.8-4.87,3a4.5,4.5,0,0,0,0,1.82c0.6,2.76,5.56,3.56,6.28,5.3a1.68,1.68,0,0,1,0,1,1.2,1.2,0,0,1-1.36.91,1.22,1.22,0,0,1-1.39-1.23v-1.3h-3.74v1c0,3,2.45,3.93,5.06,3.93s4.59-.83,4.92-3.09a6.48,6.48,0,0,0,0-2.21c-0.59-2.83-5.87-3.67-6.27-5.25"/><g id="_Gruppe_2" data-name="&lt;Gruppe&gt;"><path id="_Zusammengesetzter_Pfad_2" data-name="&lt;Zusammengesetzter Pfad&gt;" class="cls-5" d="M496.77,395.48l-0.92.19a1.86,1.86,0,0,1,.27,1,1.91,1.91,0,0,1-2,1.86,2,2,0,0,1-1.06-.3,1.75,1.75,0,0,0-.52.53,0.68,0.68,0,0,0,.58.74l2.47,0.19a1.18,1.18,0,0,1,1.06,1.43c0,1-.92,1.65-2.5,1.65s-2.56-.65-2.56-1.63a3,3,0,0,1,.53-1.27,1.61,1.61,0,0,1-.4-1.11,1.57,1.57,0,0,1,.76-1.08,1.88,1.88,0,0,1-.33-1.06,1.91,1.91,0,0,1,2-1.87,2,2,0,0,1,1,.27l1.47-.29a0.42,0.42,0,0,1,.51.32A0.41,0.41,0,0,1,496.77,395.48Zm-1.22,4.94-2.47-.18-0.22,0a2.71,2.71,0,0,0-.43.88c0,0.58.93,0.84,1.75,0.84,0.48,0,1.68-.08,1.68-0.86C495.85,400.48,495.71,400.44,495.55,400.43Zm-1.41-5a1.16,1.16,0,0,0-1.21,1.11,1.2,1.2,0,0,0,1.21,1.17,1.15,1.15,0,0,0,1.2-1.11A1.21,1.21,0,0,0,494.14,395.46Z"/><path id="_Zusammengesetzter_Pfad_3" data-name="&lt;Zusammengesetzter Pfad&gt;" class="cls-5" d="M502.77,397.92l-3.93.24a1.78,1.78,0,0,0,1.92,1.63,3.19,3.19,0,0,0,1.12-.2,0.44,0.44,0,0,1,.57.22,0.4,0.4,0,0,1-.23.54,4.2,4.2,0,0,1-1.46.27,2.64,2.64,0,0,1-2.8-2.77V397.4a2.59,2.59,0,0,1,2.67-2.68,2.48,2.48,0,0,1,2.54,2.79A0.41,0.41,0,0,1,502.77,397.92Zm-0.48-.8a1.56,1.56,0,0,0-1.66-1.57,1.73,1.73,0,0,0-1.81,1.78Z"/><path id="_Zusammengesetzter_Pfad_4" data-name="&lt;Zusammengesetzter Pfad&gt;" class="cls-5" d="M508,393.47a3,3,0,0,0-.66-0.06,1.14,1.14,0,0,0-1.27,1.23v0.93h1.19a0.44,0.44,0,1,1,0,.88h-1.19v3.63a0.45,0.45,0,0,1-.91,0v-3.63h-0.65a0.44,0.44,0,1,1,0-.88h0.65v-0.92a2,2,0,0,1,2.17-2.11,3.71,3.71,0,0,1,.9.09,0.44,0.44,0,0,1,.32.54A0.45,0.45,0,0,1,508,393.47Z"/><path id="_Zusammengesetzter_Pfad_5" data-name="&lt;Zusammengesetzter Pfad&gt;" class="cls-5" d="M511.67,400.61a2.95,2.95,0,1,1,2.9-3A2.85,2.85,0,0,1,511.67,400.61Zm0-5a2,2,0,0,0-2,2.09,2,2,0,0,0,2,2,2,2,0,0,0,2-2.09A2,2,0,0,0,511.67,395.6Zm-0.94-2.4a0.56,0.56,0,0,1-.78.06,0.53,0.53,0,0,1-.07-0.76l0.23-.25a0.57,0.57,0,0,1,.78-0.06,0.53,0.53,0,0,1,.07.76Zm2.5,0a0.57,0.57,0,0,1-.79.06,0.53,0.53,0,0,1-.06-0.76l0.22-.25a0.57,0.57,0,0,1,.79-0.06,0.53,0.53,0,0,1,.06.76Z"/><path id="_Zusammengesetzter_Pfad_6" data-name="&lt;Zusammengesetzter Pfad&gt;" class="cls-5" d="M519,395.71a1.14,1.14,0,0,0-.48-0.11,4.72,4.72,0,0,0-1.38.39v4.09a0.45,0.45,0,0,1-.91,0v-4.84a0.45,0.45,0,0,1,.87-0.17,4.43,4.43,0,0,1,1.41-.36,2.09,2.09,0,0,1,.95.24,0.43,0.43,0,0,1,.16.6A0.46,0.46,0,0,1,519,395.71Z"/><path id="_Zusammengesetzter_Pfad_7" data-name="&lt;Zusammengesetzter Pfad&gt;" class="cls-5" d="M525.55,400.09a0.45,0.45,0,0,1-.45.44,0.46,0.46,0,0,1-.4-0.23,5.23,5.23,0,0,1-1.42.31,3,3,0,0,1,0-5.91,5.05,5.05,0,0,1,1.37.29v-2a0.45,0.45,0,0,1,.91,0v7.12Zm-0.91-4.18a5.38,5.38,0,0,0-1.37-.32,2.08,2.08,0,0,0,0,4.14,5.19,5.19,0,0,0,1.37-.33v-3.49Z"/><path id="_Zusammengesetzter_Pfad_8" data-name="&lt;Zusammengesetzter Pfad&gt;" class="cls-5" d="M532,397.92l-3.93.24a1.78,1.78,0,0,0,1.92,1.63,3.2,3.2,0,0,0,1.12-.2,0.44,0.44,0,0,1,.57.22,0.4,0.4,0,0,1-.23.54,4.2,4.2,0,0,1-1.46.27,2.64,2.64,0,0,1-2.8-2.77V397.4a2.59,2.59,0,0,1,2.67-2.68,2.48,2.48,0,0,1,2.54,2.79A0.41,0.41,0,0,1,532,397.92Zm-0.48-.8a1.56,1.56,0,0,0-1.66-1.57,1.73,1.73,0,0,0-1.81,1.78Z"/><path id="_Zusammengesetzter_Pfad_9" data-name="&lt;Zusammengesetzter Pfad&gt;" class="cls-5" d="M536.73,395.71a1.14,1.14,0,0,0-.48-0.11,4.72,4.72,0,0,0-1.38.39v4.09a0.45,0.45,0,0,1-.91,0v-4.84a0.45,0.45,0,0,1,.87-0.17,4.43,4.43,0,0,1,1.41-.36,2.08,2.08,0,0,1,.95.24,0.43,0.43,0,0,1,.16.6A0.46,0.46,0,0,1,536.73,395.71Z"/><path id="_Zusammengesetzter_Pfad_10" data-name="&lt;Zusammengesetzter Pfad&gt;" class="cls-5" d="M542.11,400.44a2.86,2.86,0,0,1-.89.18c-1.37,0-2.06-.75-2.06-2.23v-2.7h-0.74a0.44,0.44,0,1,1,0-.88h0.74v-1.44a0.45,0.45,0,0,1,.91,0v1.44h1.38a0.44,0.44,0,1,1,0,.88h-1.38v2.7c0,1.13.42,1.35,1.16,1.35a2.07,2.07,0,0,0,.57-0.12,0.46,0.46,0,0,1,.58.25A0.43,0.43,0,0,1,542.11,400.44Z"/><path id="_Zusammengesetzter_Pfad_11" data-name="&lt;Zusammengesetzter Pfad&gt;" class="cls-5" d="M548.85,400.27a0.46,0.46,0,0,1-.83,0l-2.22-4.84a0.44,0.44,0,0,1,.23-0.58,0.46,0.46,0,0,1,.6.23l1.8,3.93,1.8-3.93a0.46,0.46,0,0,1,.6-0.23,0.44,0.44,0,0,1,.23.58Z"/><path id="_Zusammengesetzter_Pfad_12" data-name="&lt;Zusammengesetzter Pfad&gt;" class="cls-5" d="M555,400.61a2.95,2.95,0,1,1,2.9-3A2.85,2.85,0,0,1,555,400.61Zm0-5a2,2,0,0,0-2,2.09,2,2,0,0,0,2,2,2,2,0,0,0,2-2.09A2,2,0,0,0,555,395.6Z"/><path id="_Zusammengesetzter_Pfad_13" data-name="&lt;Zusammengesetzter Pfad&gt;" class="cls-5" d="M564.46,400.09a0.45,0.45,0,0,1-.91,0V397a1.15,1.15,0,0,0-1.3-1.37,2.74,2.74,0,0,0-1.82.79v3.7a0.45,0.45,0,0,1-.91,0v-4.84a0.45,0.45,0,0,1,.91,0v0.06a3.33,3.33,0,0,1,1.82-.58,2,2,0,0,1,2.21,2.25v3.11Z"/></g></g></svg>