<?xml version="1.0" encoding="UTF-8" standalone="no"?>
<!DOCTYPE svg PUBLIC "-//W3C//DTD SVG 1.1//EN" "http://www.w3.org/Graphics/SVG/1.1/DTD/svg11.dtd">
<svg width="300px" height="300px" viewBox="0 0 211 211" version="1.1" xmlns="http://www.w3.org/2000/svg" xmlns:xlink="http://www.w3.org/1999/xlink" xml:space="preserve" style="fill-rule:evenodd;clip-rule:evenodd;stroke-linecap:round;stroke-linejoin:round;">
  <clipPath
    clipPathUnits="userSpaceOnUse"
    id="clipPath3372"><path
      d="M 1776.56,314.355 1577.99,115.773 1379.41,314.355 1577.99,512.93 1776.56,314.355"
      id="path3374"/></clipPath>
    <g id="g4162" transform="matrix(1.25,0,0,-1.25,-144.875,197.277)">
        <path d="M236.257,25.81C226.84,34.726 214.173,40.24 200.206,40.24C186.117,40.24 173.357,34.669 163.932,25.671L200.017,-10.416L236.257,25.81" style="fill:none;stroke:rgb(78,190,75);stroke-width:1px;"/>
        <path d="M200.302,117.749C188.944,117.749 178.451,121.484 169.961,127.753L200.03,157.821L230.362,127.488C221.915,121.374 211.541,117.749 200.302,117.749" style="fill:none;stroke:rgb(255,242,0);stroke-width:1px;"/>
        <path d="M196.629,105.274C197.159,101.999 194.943,98.947 191.69,98.434C188.437,97.915 185.378,100.134 184.865,103.368C184.336,106.631 186.551,109.692 189.805,110.203C193.054,110.736 196.117,108.515 196.629,105.274" style="fill:none;stroke:rgb(69,190,237);stroke-width:1px;"/>
        <path d="M196.63,80.152C197.168,76.895 194.944,73.834 191.691,73.326C188.437,72.787 185.387,75.011 184.866,78.253C184.336,81.518 186.552,84.579 189.797,85.092C193.054,85.623 196.117,83.406 196.63,80.152" style="fill:none;stroke:rgb(69,190,237);stroke-width:1px;"/>
        <path d="M216.024,58.889C216.537,55.642 214.338,52.581 211.068,52.055C207.81,51.547 204.764,53.752 204.243,57C203.713,60.263 205.929,63.313 209.182,63.834C212.436,64.367 215.486,62.144 216.024,58.889" style="fill:none;stroke:rgb(69,190,237);stroke-width:1px;"/>
        <path d="M221.979,92.074C222.501,88.838 220.294,85.776 217.032,85.25C213.782,84.719 210.728,86.938 210.198,90.195C209.669,93.446 211.897,96.508 215.138,97.029C218.4,97.553 221.45,95.333 221.979,92.074" style="fill:none;stroke:rgb(69,190,237);stroke-width:1px;"/>
        <path d="M254.261,43.694L243.361,54.586L254.646,65.871L232.066,65.872L224.251,73.696L231.846,81.296L254.853,81.296L243.351,92.814L254.264,103.706L284.143,73.827L254.261,43.694" style="fill:none;stroke:rgb(69,190,237);stroke-width:1px;"/>
        <g id="g3370" transform="matrix(0.423626,-1.06561e-05,-1.06561e-05,0.423626,-468.451,-59.4524)" clip-path="url(#clipPath3372)">
            <g transform="matrix(0.707142,0.707107,-0.707107,0.707071,627.403,-886.132)">
                <path d="M1413.79,344.719L1405.21,336.137C1411.26,330.078 1414.23,322.25 1414.25,314.313C1414.23,306.375 1411.26,298.555 1405.23,292.516C1399.17,286.473 1391.34,283.496 1383.41,283.48C1375.46,283.496 1367.63,286.473 1361.57,292.527C1355.53,298.574 1352.55,306.398 1352.54,314.332C1352.55,322.266 1355.53,330.086 1361.57,336.137L1361.88,336.441L1361.56,336.133C1367.63,342.18 1375.46,345.16 1383.4,345.172C1391.34,345.156 1399.16,342.188 1405.2,336.141L1405.21,336.137L1413.79,344.719L1422.37,353.293C1411.65,364.043 1397.47,369.457 1383.4,369.441C1369.33,369.457 1355.15,364.035 1344.41,353.305L1344.73,353.621L1344.41,353.297C1333.67,342.57 1328.26,328.395 1328.27,314.332C1328.26,300.27 1333.67,286.094 1344.41,275.363C1355.15,264.617 1369.34,259.195 1383.41,259.211C1397.48,259.199 1411.65,264.617 1422.39,275.352C1433.12,286.074 1438.53,300.246 1438.52,314.313C1438.53,328.375 1433.12,342.559 1422.37,353.297L1422.69,352.98L1422.37,353.293L1413.79,344.719" style="fill:none;stroke:rgb(69,190,237);stroke-width:2.46px;"/>
            </g>
            <g transform="matrix(0.707142,0.707107,-0.707107,0.707071,627.403,-886.132)">
                <path d="M1444.18,375.129L1435.6,366.547C1450.05,352.09 1457.22,333.27 1457.23,314.332C1457.22,295.395 1450.04,276.57 1435.6,262.117C1421.16,247.688 1402.32,240.508 1383.38,240.492C1364.45,240.508 1345.63,247.672 1331.18,262.117C1316.73,276.57 1309.57,295.383 1309.55,314.305C1309.57,333.242 1316.75,352.066 1331.2,366.52C1345.66,380.973 1364.48,388.152 1383.42,388.168C1402.34,388.152 1421.14,380.988 1435.6,366.547L1452.76,383.711C1433.63,402.84 1408.47,412.449 1383.42,412.438C1358.34,412.449 1333.16,402.82 1314.04,383.684C1294.9,364.563 1285.27,339.379 1285.28,314.305C1285.27,289.25 1294.88,264.082 1314.02,244.953C1333.15,225.816 1358.32,216.211 1383.38,216.223C1408.46,216.211 1433.64,225.828 1452.76,244.953C1471.89,264.082 1481.52,289.262 1481.5,314.332C1481.52,339.398 1471.9,364.578 1452.76,383.711L1444.18,375.129" style="fill:none;stroke:rgb(69,190,237);stroke-width:2.46px;"/>
            </g>
            <g transform="matrix(0.707142,0.707107,-0.707107,0.707071,627.403,-886.132)">
                <path d="M1474.57,405.523L1465.99,396.941C1488.84,374.09 1500.21,344.277 1500.22,314.352C1500.21,284.41 1488.82,254.574 1465.99,231.727C1443.15,208.895 1413.32,197.52 1383.38,197.508C1353.46,197.52 1323.64,208.883 1300.79,231.727C1277.95,254.566 1266.59,284.371 1266.57,314.293C1266.59,344.238 1277.97,374.074 1300.81,396.93C1323.65,419.762 1353.48,431.141 1383.42,431.152C1413.34,431.141 1443.15,419.781 1465.99,396.941L1474.57,405.523L1483.15,414.102C1455.64,441.637 1419.47,455.438 1383.42,455.426C1347.35,455.438 1311.17,441.613 1283.65,414.09C1256.11,386.563 1242.29,350.371 1242.3,314.293C1242.29,278.242 1256.09,242.074 1283.63,214.563C1311.15,187.027 1347.33,173.223 1383.38,173.234C1419.45,173.223 1455.63,187.043 1483.15,214.563C1510.68,242.09 1524.5,278.273 1524.49,314.352C1524.51,350.406 1510.7,386.582 1483.15,414.105L1483.6,413.656L1483.15,414.102L1474.57,405.523" style="fill:none;stroke:rgb(69,190,237);stroke-width:2.46px;"/>
            </g>
            <g transform="matrix(1,0,0,1,1.88846,4.75032e-05)">
                <path d="M1395.06,317.23C1396.43,308.734 1390.68,300.82 1382.23,299.484C1373.79,298.125 1365.86,303.898 1364.51,312.281C1363.14,320.746 1368.91,328.691 1377.34,330.016C1385.78,331.391 1393.71,325.641 1395.06,317.23" style="fill:none;stroke:rgb(69,190,237);stroke-width:2.46px;"/>
            </g>
        </g>
    </g>
</svg>
