<?xml version="1.0" encoding="UTF-8" standalone="no"?>
<!DOCTYPE svg PUBLIC "-//W3C//DTD SVG 1.1//EN" "http://www.w3.org/Graphics/SVG/1.1/DTD/svg11.dtd">
<svg width="100%" height="100%" viewBox="0 0 319 113" version="1.1" xmlns="http://www.w3.org/2000/svg" xmlns:xlink="http://www.w3.org/1999/xlink" xml:space="preserve" style="fill-rule:evenodd;clip-rule:evenodd;stroke-linejoin:round;stroke-miterlimit:1.41421;">
    <g id="g4366" transform="matrix(1.06277,0,0,1.06277,100.962,-983.23)">
        <path id="path3354" d="M171.098,1003.71C166.104,998.976 159.386,996.052 151.979,996.052C144.507,996.052 137.74,999.006 132.742,1003.78L151.879,1022.92L171.098,1003.71" style="fill:rgb(78,190,75);fill-rule:nonzero;"/>
        <path id="path3356" d="M152.03,954.947C146.007,954.947 140.442,952.966 135.94,949.641L151.886,933.695L167.972,949.782C163.492,953.024 157.99,954.947 152.03,954.947" style="fill:rgb(255,242,0);fill-rule:nonzero;"/>
        <path id="path3358" d="M150.082,961.563C150.363,963.3 149.188,964.918 147.463,965.19C145.738,965.465 144.115,964.288 143.844,962.574C143.563,960.843 144.738,959.22 146.463,958.948C148.186,958.666 149.811,959.844 150.082,961.563" style="fill:rgb(69,190,237);fill-rule:nonzero;"/>
        <path id="path3362" d="M160.368,986.162C160.64,987.884 159.474,989.507 157.74,989.786C156.012,990.055 154.397,988.886 154.12,987.164C153.839,985.433 155.014,983.816 156.74,983.54C158.465,983.257 160.083,984.436 160.368,986.162" style="fill:rgb(69,190,237);fill-rule:nonzero;"/>
        <path id="path3364" d="M163.526,968.563C163.803,970.279 162.632,971.903 160.902,972.182C159.179,972.464 157.559,971.287 157.278,969.56C156.998,967.835 158.179,966.212 159.898,965.935C161.628,965.657 163.245,966.835 163.526,968.563" style="fill:rgb(69,190,237);fill-rule:nonzero;"/>
        <path id="path3366" d="M180.646,994.22L174.865,988.444L180.85,982.459L168.876,982.459L164.73,978.309L168.759,974.279L180.96,974.279L174.86,968.171L180.647,962.394L196.493,978.24L180.646,994.221" style="fill:rgb(69,190,237);fill-rule:nonzero;"/>
        <g id="g4284">
            <path id="path4366" d="M29.38,955.877L29.38,959.901L33.131,959.901L33.131,986.281L29.38,986.281L29.38,990.305L43.794,990.305C47.604,990.305 50.507,989.519 52.469,987.895C54.431,986.271 55.409,983.821 55.409,980.641C55.409,978.314 54.733,976.345 53.382,974.786C52.24,973.467 50.839,972.656 49.285,972.183C50.463,971.781 51.509,971.102 52.301,969.971C53.308,968.546 53.807,966.807 53.807,964.789C53.807,962.026 52.958,959.824 51.256,958.26C49.579,956.656 47.074,955.877 43.794,955.877L29.38,955.877L29.38,955.877ZM37.707,959.901L43.044,959.901C45.134,959.901 46.656,960.344 47.644,961.178C48.633,962.012 49.134,963.251 49.134,964.989C49.134,966.864 48.615,968.208 47.6,969.106C46.586,970.004 45.033,970.478 42.895,970.478L37.707,970.478L37.707,959.901L37.707,959.901ZM-80.174,966.379C-83.055,966.379 -85.244,967.057 -86.688,968.464C-88.108,969.815 -88.837,971.48 -88.837,973.391C-88.837,974.969 -88.37,976.331 -87.438,977.43C-86.507,978.528 -85.125,979.358 -83.321,979.938L-79.217,981.29L-79.212,981.293C-78.179,981.6 -77.428,982.012 -76.946,982.509C-76.464,983.006 -76.235,983.579 -76.235,984.292C-76.235,985.272 -76.605,985.98 -77.398,986.531C-78.2,987.054 -79.267,987.332 -80.623,987.332C-82.136,987.332 -83.522,987.031 -84.813,986.484L-85.875,981.83L-89.462,981.83L-88.871,989.053L-88.703,989.129C-86.13,990.28 -83.414,990.855 -80.572,990.855C-77.66,990.855 -75.399,990.231 -73.823,988.936L-73.823,988.933C-72.231,987.618 -71.411,985.946 -71.411,983.993C-71.411,982.36 -71.936,980.944 -72.978,979.806C-74.019,978.669 -75.559,977.806 -77.573,977.195L-77.583,977.192L-81.478,975.893L-81.483,975.89C-82.379,975.618 -83.024,975.238 -83.441,974.77C-83.857,974.301 -84.061,973.742 -84.061,973.039C-84.061,972.183 -83.756,971.482 -83.109,970.865C-82.484,970.27 -81.524,969.952 -80.174,969.952C-78.734,969.952 -77.491,970.172 -76.399,970.555L-75.842,974.452L-72.26,974.452L-72.26,967.882L-72.451,967.801C-74.696,966.849 -77.273,966.378 -80.174,966.378L-80.174,966.379ZM-57.39,966.379C-60.728,966.379 -63.33,967.523 -65.089,969.8C-66.838,972.063 -67.704,974.99 -67.704,978.541C-67.704,982.321 -66.859,985.333 -65.138,987.536C-63.404,989.756 -60.652,990.854 -56.99,990.854C-53.828,990.854 -50.877,989.917 -48.163,988.051L-47.953,987.907L-49.501,984.215L-49.816,984.435C-52.141,986.039 -54.509,986.83 -56.941,986.83C-58.981,986.83 -60.459,986.249 -61.468,985.099C-62.425,984.008 -62.938,982.325 -63.033,980.104L-48.322,980.104L-48.28,979.84C-48.078,978.56 -47.978,977.378 -47.978,976.292C-47.978,973.565 -48.769,971.215 -50.349,969.292C-51.945,967.348 -54.325,966.379 -57.39,966.379L-57.39,966.379ZM-29.301,966.379C-32.529,966.379 -35.063,967.373 -36.99,969.165L-36.99,966.877L-44.318,966.877L-44.318,970.903L-41.065,970.903L-41.065,986.33L-44.366,986.33L-44.366,990.305L-32.89,990.305L-32.89,986.33L-36.69,986.33L-36.69,972.815C-36.034,972.244 -35.155,971.725 -33.992,971.284C-32.791,970.83 -31.579,970.603 -30.351,970.603C-28.432,970.603 -27.254,971.046 -26.708,971.821L-26.698,971.831C-26.098,972.612 -25.763,973.911 -25.763,975.741L-25.763,986.33L-29.614,986.33L-29.614,990.305L-18.138,990.305L-18.138,986.33L-21.387,986.33L-21.387,975.443C-21.387,972.403 -21.973,970.127 -23.209,968.643L-23.211,968.64C-24.454,967.115 -26.514,966.378 -29.301,966.378L-29.301,966.379ZM-6.337,966.379C-9.218,966.379 -11.407,967.057 -12.851,968.464C-14.271,969.815 -15,971.48 -15,973.391C-15,974.969 -14.533,976.331 -13.601,977.43C-12.67,978.528 -11.288,979.358 -9.484,979.938L-5.38,981.29L-5.375,981.293C-4.342,981.6 -3.591,982.012 -3.109,982.509C-2.627,983.006 -2.398,983.579 -2.398,984.292C-2.398,985.272 -2.768,985.98 -3.561,986.531C-4.363,987.054 -5.43,987.332 -6.786,987.332C-8.299,987.332 -9.685,987.031 -10.976,986.484L-12.038,981.83L-15.625,981.83L-15.034,989.053L-14.866,989.129C-12.293,990.28 -9.577,990.855 -6.735,990.855C-3.823,990.855 -1.562,990.231 0.014,988.936L0.014,988.933C1.606,987.618 2.426,985.946 2.426,983.993C2.426,982.36 1.901,980.944 0.859,979.806C-0.182,978.669 -1.722,977.806 -3.736,977.195L-3.746,977.192L-7.641,975.893L-7.646,975.89C-8.542,975.618 -9.187,975.238 -9.604,974.77C-10.02,974.301 -10.224,973.742 -10.224,973.039C-10.224,972.183 -9.919,971.482 -9.272,970.865C-8.647,970.27 -7.687,969.952 -6.337,969.952C-4.897,969.952 -3.654,970.172 -2.562,970.555L-2.005,974.452L1.577,974.452L1.577,967.882L1.386,967.801C-0.859,966.849 -3.436,966.378 -6.337,966.378L-6.337,966.379ZM16.447,966.379C13.109,966.379 10.507,967.523 8.748,969.8C6.999,972.063 6.133,974.99 6.133,978.541C6.133,982.321 6.978,985.333 8.699,987.536C10.433,989.756 13.185,990.854 16.847,990.854C20.009,990.854 22.96,989.917 25.674,988.051L25.884,987.907L24.336,984.215L24.021,984.435C21.696,986.039 19.328,986.83 16.896,986.83C14.856,986.83 13.378,986.249 12.369,985.099C11.412,984.008 10.899,982.325 10.804,980.104L25.515,980.104L25.557,979.84C25.759,978.56 25.859,977.378 25.859,976.292C25.859,973.565 25.068,971.215 23.488,969.292C21.892,967.348 19.512,966.379 16.447,966.379L16.447,966.379ZM70.271,966.379C66.745,966.379 64.037,967.399 62.236,969.46C60.434,971.522 59.557,974.58 59.557,978.592C59.557,982.339 60.386,985.331 62.072,987.534L62.075,987.537C63.808,989.756 66.542,990.855 70.171,990.855C73.715,990.855 76.436,989.827 78.246,987.749C80.056,985.671 80.934,982.587 80.934,978.541C80.934,974.546 80.064,971.502 78.271,969.449C76.477,967.396 73.782,966.379 70.272,966.379L70.271,966.379ZM83.132,966.877L83.132,970.903L87.234,970.903L92.554,978.236L86.24,986.33L83.032,986.33L83.032,990.305L94.908,990.305L94.908,986.33L90.813,986.33L94.991,980.675L99.533,987.043L99.533,990.305L108.66,990.305L108.66,986.33L104.702,986.33L98.739,978.443L104.599,970.903L107.959,970.903L107.959,966.877L96.132,966.877L96.132,970.903L100.177,970.903L96.449,975.96L92.308,970.19L92.308,966.877L83.132,966.877L83.132,966.877ZM-57.39,970.303C-55.79,970.303 -54.578,970.801 -53.672,971.802L-53.669,971.802L-53.669,971.805C-52.763,972.773 -52.302,974.082 -52.302,975.792C-52.302,975.966 -52.337,976.225 -52.37,976.478L-62.967,976.478C-62.784,974.447 -62.267,972.898 -61.392,971.898C-60.463,970.836 -59.159,970.303 -57.39,970.303L-57.39,970.303ZM16.447,970.303C18.047,970.303 19.259,970.801 20.165,971.802L20.168,971.802L20.168,971.805C21.074,972.773 21.535,974.082 21.535,975.792C21.535,975.966 21.5,976.225 21.467,976.478L10.87,976.478C11.053,974.447 11.57,972.898 12.445,971.898C13.374,970.836 14.678,970.303 16.447,970.303L16.447,970.303ZM70.22,970.503C72.491,970.503 74.013,971.165 74.913,972.468L74.916,972.471C75.824,973.755 76.31,975.795 76.31,978.593C76.31,981.357 75.827,983.412 74.913,984.768L74.911,984.771C74.044,986.071 72.543,986.731 70.271,986.731C68.036,986.731 66.511,986.07 65.576,984.763C64.664,983.409 64.182,981.337 64.182,978.542C64.182,975.778 64.667,973.757 65.576,972.472L65.579,972.469C66.48,971.164 67.983,970.503 70.22,970.503L70.22,970.503ZM37.707,974.505L43.293,974.505C45.834,974.505 47.696,975.027 48.909,976.021C50.122,977.015 50.733,978.487 50.733,980.541C50.733,982.492 50.134,983.89 48.938,984.836C47.743,985.781 45.902,986.281 43.393,986.281L37.707,986.281L37.707,974.505Z" style="fill:rgb(78,190,75);fill-rule:nonzero;"/>
        </g>
        <path id="path3360" d="M150.083,974.885C150.368,976.613 149.189,978.236 147.463,978.505C145.738,978.791 144.12,977.612 143.844,975.893C143.563,974.161 144.738,972.538 146.459,972.266C148.187,971.984 149.811,973.16 150.083,974.885" style="fill:rgb(69,190,237);fill-rule:nonzero;"/>
        <g id="g3370" transform="matrix(0.224662,5.652e-06,-5.652e-06,-0.224662,-202.63,1048.92)">
            <clipPath id="_clip1">
                <path d="M1776.56,314.355L1577.99,115.773L1379.41,314.355L1577.99,512.93L1776.56,314.355"/>
            </clipPath>
            <g clip-path="url(#_clip1)">
                <path id="path3376" d="M1413.79,344.719L1405.21,336.137C1411.26,330.078 1414.23,322.25 1414.25,314.313C1414.23,306.375 1411.26,298.555 1405.23,292.516C1399.17,286.473 1391.34,283.496 1383.41,283.48C1375.46,283.496 1367.63,286.473 1361.57,292.527C1355.53,298.574 1352.55,306.398 1352.54,314.332C1352.55,322.266 1355.53,330.086 1361.57,336.137L1361.88,336.441L1361.56,336.133C1367.63,342.18 1375.46,345.16 1383.4,345.172C1391.34,345.156 1399.16,342.188 1405.2,336.141L1405.21,336.137L1413.79,344.719L1422.37,353.293C1411.65,364.043 1397.47,369.457 1383.4,369.441C1369.33,369.457 1355.15,364.035 1344.41,353.305L1344.73,353.621L1344.41,353.297C1333.67,342.57 1328.26,328.395 1328.27,314.332C1328.26,300.27 1333.67,286.094 1344.41,275.363C1355.15,264.617 1369.34,259.195 1383.41,259.211C1397.48,259.199 1411.65,264.617 1422.39,275.352C1433.12,286.074 1438.53,300.246 1438.52,314.313C1438.53,328.375 1433.12,342.559 1422.37,353.297L1422.69,352.98L1422.37,353.293L1413.79,344.719" style="fill:rgb(74,190,234);fill-rule:nonzero;"/>
                <path id="path3378" d="M1444.18,375.129L1435.6,366.547C1450.05,352.09 1457.22,333.27 1457.23,314.332C1457.22,295.395 1450.04,276.57 1435.6,262.117C1421.16,247.688 1402.32,240.508 1383.38,240.492C1364.45,240.508 1345.63,247.672 1331.18,262.117C1316.73,276.57 1309.57,295.383 1309.55,314.305C1309.57,333.242 1316.75,352.066 1331.2,366.52C1345.66,380.973 1364.48,388.152 1383.42,388.168C1402.34,388.152 1421.14,380.988 1435.6,366.547L1452.76,383.711C1433.63,402.84 1408.47,412.449 1383.42,412.438C1358.34,412.449 1333.16,402.82 1314.04,383.684C1294.9,364.563 1285.27,339.379 1285.28,314.305C1285.27,289.25 1294.88,264.082 1314.02,244.953C1333.15,225.816 1358.32,216.211 1383.38,216.223C1408.46,216.211 1433.64,225.828 1452.76,244.953C1471.89,264.082 1481.52,289.262 1481.5,314.332C1481.52,339.398 1471.9,364.578 1452.76,383.711L1444.18,375.129" style="fill:rgb(74,190,234);fill-rule:nonzero;"/>
                <path id="path3380" d="M1474.57,405.523L1465.99,396.941C1488.84,374.09 1500.21,344.277 1500.22,314.352C1500.21,284.41 1488.82,254.574 1465.99,231.727C1443.15,208.895 1413.32,197.52 1383.38,197.508C1353.46,197.52 1323.64,208.883 1300.79,231.727C1277.95,254.566 1266.59,284.371 1266.57,314.293C1266.59,344.238 1277.97,374.074 1300.81,396.93C1323.65,419.762 1353.48,431.141 1383.42,431.152C1413.34,431.141 1443.15,419.781 1465.99,396.941L1474.57,405.523L1483.15,414.102C1455.64,441.637 1419.47,455.438 1383.42,455.426C1347.35,455.438 1311.17,441.613 1283.65,414.09C1256.11,386.563 1242.29,350.371 1242.3,314.293C1242.29,278.242 1256.09,242.074 1283.63,214.563C1311.15,187.027 1347.33,173.223 1383.38,173.234C1419.45,173.223 1455.63,187.043 1483.15,214.563C1510.68,242.09 1524.5,278.273 1524.49,314.352C1524.51,350.406 1510.7,386.582 1483.15,414.105L1483.6,413.656L1483.15,414.102L1474.57,405.523" style="fill:rgb(74,190,234);fill-rule:nonzero;"/>
                <path id="path3382" d="M1395.06,317.23C1396.43,308.734 1390.68,300.82 1382.23,299.484C1373.79,298.125 1365.86,303.898 1364.51,312.281C1363.14,320.746 1368.91,328.691 1377.34,330.016C1385.78,331.391 1393.71,325.641 1395.06,317.23" style="fill:rgb(69,190,237);fill-rule:nonzero;"/>
            </g>
        </g>
    </g>
</svg>
