<svg id="Ebene_1" data-name="Ebene 1" xmlns="http://www.w3.org/2000/svg" viewBox="0 0 242.34 91.5"><defs><style>.cls-1{fill:#50ae48;}.cls-2{fill:#636362;}.cls-2,.cls-3,.cls-4{stroke:#fff;stroke-miterlimit:10;stroke-width:4.09px;}.cls-3,.cls-5{fill:#00b4e6;}.cls-4,.cls-6{fill:#ffec00;}</style></defs><title>Flyer_Hackathon Step6</title><path class="cls-1" d="M22.48,43.14h-3l-.53-2.82a7.84,7.84,0,0,0-2.9-.49c-2,0-2.9,1.15-2.9,2.37s.49,1.8,2,2.29l3.11.94c3.23,1,4.95,2.62,4.95,5.48S21,56.46,15.65,56.46a17.62,17.62,0,0,1-6.79-1.31L8.5,49.76h3L12.38,53a7.47,7.47,0,0,0,3.27.65c1.88,0,3.19-.82,3.19-2.33,0-1.18-.74-1.88-2.17-2.37l-3.27-1c-2.86-.9-4.54-2.58-4.54-5.32S10.63,37,16,37a19.26,19.26,0,0,1,6.5,1.14Z"/><path class="cls-1" d="M40.63,51.27l1.27,3a13.06,13.06,0,0,1-7.07,2.17c-6.29,0-8.83-4.09-8.83-9.77C26,41.34,28.74,37,34.42,37c5.44,0,7.64,3.92,7.64,7.93A14.11,14.11,0,0,1,41.73,48H30.08c0,3.15,1.51,5.07,4.78,5.07A10.62,10.62,0,0,0,40.63,51.27ZM38.26,45a4,4,0,0,0,0-.65c0-2.62-1.59-4.13-3.92-4.13-3,0-4.09,2.13-4.25,4.78Z"/><path class="cls-1" d="M44.92,52.66H47.5V40.72H45V37.37h5.89V39.5A8.35,8.35,0,0,1,57.31,37c4.46,0,6.25,2.49,6.25,7.23v8.46H66.1V56H56.86V52.66h2.9V44.57c0-2.49-.61-4-3.76-4a8.26,8.26,0,0,0-4.74,1.68V52.66h2.9V56H44.92Z"/><path class="cls-1" d="M82.16,43.14h-3l-.53-2.82a7.84,7.84,0,0,0-2.9-.49c-2,0-2.9,1.15-2.9,2.37s.49,1.8,2,2.29l3.11.94c3.23,1,4.95,2.62,4.95,5.48s-2.13,5.56-7.48,5.56a17.62,17.62,0,0,1-6.79-1.31l-.37-5.39h3L72.07,53a7.48,7.48,0,0,0,3.27.65c1.88,0,3.19-.82,3.19-2.33,0-1.18-.74-1.88-2.17-2.37l-3.27-1c-2.86-.9-4.54-2.58-4.54-5.32S70.31,37,75.66,37a19.26,19.26,0,0,1,6.5,1.14Z"/><path class="cls-1" d="M100.31,51.27l1.27,3a13.06,13.06,0,0,1-7.07,2.17c-6.29,0-8.83-4.09-8.83-9.77,0-5.35,2.74-9.73,8.42-9.73,5.44,0,7.64,3.92,7.64,7.93a14.11,14.11,0,0,1-.33,3.07H89.77c0,3.15,1.51,5.07,4.78,5.07A10.62,10.62,0,0,0,100.31,51.27ZM97.94,45a4,4,0,0,0,0-.65c0-2.62-1.59-4.13-3.92-4.13-3,0-4.09,2.13-4.25,4.78Z"/><path class="cls-1" d="M104.85,52.62h2.94V31.77h-2.94V28.38h11.9c5.64,0,8.13,2.82,8.13,7.2,0,3.07-1.72,5.35-4,5.89a6.84,6.84,0,0,1,5.27,6.78c0,5.89-4.17,7.77-9.44,7.77h-11.9ZM116,40.07c3.23,0,4.74-1.55,4.74-4.29,0-2.41-1.19-4-4.62-4H111.8v8.3Zm.49,12.55c4.09,0,5.6-1.72,5.6-4.54,0-2.58-1.31-4.66-5.64-4.66H111.8v9.2Z"/><path class="cls-1" d="M146.14,46.65c0,5.76-2.33,9.81-8.79,9.81-6.17,0-8.58-4-8.58-9.73S131.09,37,137.51,37,146.14,41,146.14,46.65Zm-4,.08c0-4.13-1.1-6.21-4.66-6.21s-4.66,2.08-4.66,6.13,1.18,6.25,4.7,6.25S142.09,50.74,142.09,46.73Z"/><path class="cls-1" d="M154.64,52.66H158V56h-9.32V52.66H151l5-6.25-4.38-5.68h-2.9V37.37h7.73v3.19l3.27,4.29,3.11-4.13h-3.31V37.37h9.28v3.35h-2.53l-4.66,5.93,4.95,6h2.66V56h-7.64V52.82l-3.6-4.7Z"/><path class="cls-2" d="M218.39,61.21a16.84,16.84,0,0,0-23.26,0l11.61,11.61Z"/><path class="cls-3" d="M205.64,35.65a1.92,1.92,0,1,1-2.2-1.58,1.91,1.91,0,0,1,2.2,1.58"/><path class="cls-3" d="M205.64,43.73a1.92,1.92,0,1,1-2.2-1.59,1.91,1.91,0,0,1,2.2,1.59"/><path class="cls-3" d="M211.88,50.57a1.92,1.92,0,1,1-2.2-1.59,1.92,1.92,0,0,1,2.2,1.59"/><path class="cls-3" d="M213.8,39.9a1.92,1.92,0,1,1-2.2-1.59,1.92,1.92,0,0,1,2.2,1.59"/><path class="cls-4" d="M197.06,28.42l9.67-9.67,9.76,9.76a16.45,16.45,0,0,1-19.43-.08Z"/><polygon class="cls-3" points="224.18 55.46 220.67 51.95 224.3 48.32 217.04 48.32 214.53 45.81 216.97 43.36 224.37 43.36 220.67 39.66 224.18 36.15 233.79 45.76 224.18 55.46"/><path class="cls-1" d="M218.39,61.21a16.84,16.84,0,0,0-23.26,0l11.61,11.61Z"/><path class="cls-5" d="M205.64,35.65a1.92,1.92,0,1,1-2.2-1.58,1.91,1.91,0,0,1,2.2,1.58"/><path class="cls-5" d="M205.64,43.73a1.92,1.92,0,1,1-2.2-1.59,1.91,1.91,0,0,1,2.2,1.59"/><path class="cls-5" d="M211.88,50.57a1.92,1.92,0,1,1-2.2-1.59,1.92,1.92,0,0,1,2.2,1.59"/><path class="cls-5" d="M213.8,39.9a1.92,1.92,0,1,1-2.2-1.59,1.92,1.92,0,0,1,2.2,1.59"/><path class="cls-6" d="M197.06,28.42l9.67-9.67,9.76,9.76a16.45,16.45,0,0,1-19.43-.08Z"/><polygon class="cls-5" points="224.18 55.46 220.67 51.95 224.3 48.32 217.04 48.32 214.53 45.81 216.97 43.36 224.37 43.36 220.67 39.66 224.18 36.15 233.79 45.76 224.18 55.46"/><path class="cls-5" d="M182.72,42.76h0a4.31,4.31,0,0,1,0,6.09l2.4,2.4a7.7,7.7,0,0,0,0-10.88h0Z"/><path class="cls-5" d="M187,38.52a10.32,10.32,0,0,1,0,14.58l2.4,2.4a13.7,13.7,0,0,0,0-19.37Z"/><path class="cls-5" d="M191.21,34.27h0a16.3,16.3,0,0,1,0,23.07l2.4,2.4a19.68,19.68,0,0,0,0-27.86h0Z"/><path class="cls-5" d="M179.67,45.81l1.52,1.52a2.1,2.1,0,0,0,0-3Z"/></svg>