<?xml version="1.0" encoding="UTF-8" standalone="no"?>
<!-- Created with Inkscape (http://www.inkscape.org/) -->

<svg
   xmlns:dc="http://purl.org/dc/elements/1.1/"
   xmlns:cc="http://creativecommons.org/ns#"
   xmlns:rdf="http://www.w3.org/1999/02/22-rdf-syntax-ns#"
   xmlns:svg="http://www.w3.org/2000/svg"
   xmlns="http://www.w3.org/2000/svg"
   xmlns:sodipodi="http://sodipodi.sourceforge.net/DTD/sodipodi-0.dtd"
   xmlns:inkscape="http://www.inkscape.org/namespaces/inkscape"
   id="svg3336"
   version="1.1"
   inkscape:version="0.91 r13725"
   xml:space="preserve"
   width="59.352432mm"
   height="59.350437mm"
   viewBox="0 0 210.3039 210.29684"
   sodipodi:docname="sensebox_sticker_randlos.svg"><metadata
     id="metadata3342"><rdf:RDF><cc:Work
         rdf:about=""><dc:format>image/svg+xml</dc:format><dc:type
           rdf:resource="http://purl.org/dc/dcmitype/StillImage" /><dc:title></dc:title></cc:Work></rdf:RDF></metadata><defs
     id="defs3340"><clipPath
       clipPathUnits="userSpaceOnUse"
       id="clipPath3372"><path
         d="M 1776.56,314.355 1577.99,115.773 1379.41,314.355 1577.99,512.93 1776.56,314.355"
         id="path3374"
         inkscape:connector-curvature="0" /></clipPath></defs><sodipodi:namedview
     pagecolor="#ffffff"
     bordercolor="#666666"
     borderopacity="1"
     objecttolerance="10"
     gridtolerance="10"
     guidetolerance="10"
     inkscape:pageopacity="0"
     inkscape:pageshadow="2"
     inkscape:window-width="2560"
     inkscape:window-height="1385"
     id="namedview3338"
     showgrid="false"
     units="mm"
     fit-margin-top="0"
     fit-margin-left="0"
     fit-margin-bottom="0"
     fit-margin-right="0"
     inkscape:zoom="2.8284271"
     inkscape:cx="96.486743"
     inkscape:cy="50.741222"
     inkscape:window-x="0"
     inkscape:window-y="27"
     inkscape:window-maximized="1"
     inkscape:current-layer="g3344" /><g
     id="g3344"
     inkscape:groupmode="layer"
     inkscape:label="ink_ext_XXXXXX"
     transform="matrix(1.25,0,0,-1.25,-144.87458,197.27671)"><g
       id="g4162"><path
         d="m 236.25729,25.809652 c -9.41744,8.915872 -22.084,14.430114 -36.05095,14.430465 -14.08981,3.52e-4 -26.84929,-5.570861 -36.27475,-14.569288 l 36.08553,-36.086939 36.2403,36.225907"
         style="fill:#4ebe4b;fill-opacity:1;fill-rule:nonzero;stroke:none"
         id="path3354"
         inkscape:connector-curvature="0" /><path
         d="m 200.30182,117.74887 c -11.35741,2.9e-4 -21.85074,3.73524 -30.34036,10.00385 l 30.06823,30.06865 30.3324,-30.33324 c -8.44695,-6.11398 -18.82147,-9.73954 -30.06027,-9.73926"
         style="fill:#fff200;fill-opacity:1;fill-rule:nonzero;stroke:none"
         id="path3356"
         inkscape:connector-curvature="0" /><path
         d="m 196.62929,105.2736 c 0.52962,-3.27507 -1.68587,-6.326391 -4.93931,-6.839326 -3.25343,-0.519279 -6.31206,1.699746 -6.82474,4.933296 -0.52961,3.26321 1.68588,6.32428 4.93932,6.83551 3.24919,0.53284 6.31207,-1.68788 6.82473,-4.92948"
         style="fill:#45beed;fill-opacity:1;fill-rule:nonzero;stroke:none"
         id="path3358"
         inkscape:connector-curvature="0" /><path
         d="m 196.62993,80.152143 c 0.53808,-3.256854 -1.68588,-6.317921 -4.93931,-6.825761 -3.25344,-0.539623 -6.3036,1.684495 -6.82474,4.926516 -0.52962,3.264901 1.68587,6.32597 4.93083,6.838898 3.25768,0.531147 6.32055,-1.686193 6.83322,-4.939653"
         style="fill:#45beed;fill-opacity:1;fill-rule:nonzero;stroke:none"
         id="path3360"
         inkscape:connector-curvature="0" /><path
         d="m 216.02407,58.889433 c 0.51267,-3.247108 -1.68587,-6.308171 -4.95625,-6.834233 -3.25768,-0.50785 -6.30361,1.696353 -6.82475,4.944733 -0.52962,3.263205 1.68587,6.312834 4.93931,6.833817 3.25344,0.532839 6.3036,-1.689583 6.84169,-4.944317"
         style="fill:#45beed;fill-opacity:1;fill-rule:nonzero;stroke:none"
         id="path3362"
         inkscape:connector-curvature="0" /><path
         d="m 221.97942,92.07404 c 0.52114,-3.236517 -1.68588,-6.29801 -4.94779,-6.824072 -3.24919,-0.53114 -6.3036,1.687887 -6.83321,4.94474 -0.52962,3.251766 1.69859,6.312837 4.93931,6.834234 3.2619,0.524367 6.31208,-1.696353 6.84169,-4.954902"
         style="fill:#45beed;fill-opacity:1;fill-rule:nonzero;stroke:none"
         id="path3364"
         inkscape:connector-curvature="0" /><path
         d="m 254.26095,43.693851 -10.90039,10.891908 11.28511,11.285536 -22.57927,5.73e-4 -7.81588,7.824367 7.59542,7.60009 23.00713,-5.81e-4 -11.50172,11.517849 10.91234,10.892857 29.8791,-29.879533 -29.88183,-30.133049"
         style="fill:#45beed;fill-opacity:1;fill-rule:nonzero;stroke:none"
         id="path3366"
         inkscape:connector-curvature="0" /><g
         transform="matrix(0.42362617,-1.0656099e-5,-1.0656099e-5,0.42362617,-468.45117,-59.452381)"
         id="g3368"><g
           id="g3370"
           clip-path="url(#clipPath3372)"><path
             d="m 1413.79,344.719 -8.58,-8.582 c 6.05,-6.059 9.02,-13.887 9.04,-21.824 -0.02,-7.938 -2.99,-15.758 -9.02,-21.797 -6.06,-6.043 -13.89,-9.02 -21.82,-9.036 -7.95,0.016 -15.78,2.993 -21.84,9.047 -6.04,6.047 -9.02,13.871 -9.03,21.805 0.01,7.934 2.99,15.754 9.03,21.805 l 0.31,0.304 -0.32,-0.308 c 6.07,6.047 13.9,9.027 21.84,9.039 7.94,-0.016 15.76,-2.984 21.8,-9.031 l 0.01,-0.004 8.58,8.582 8.58,8.574 c -10.72,10.75 -24.9,16.164 -38.97,16.148 -14.07,0.016 -28.25,-5.406 -38.99,-16.136 l 0.32,0.316 -0.32,-0.324 c -10.74,-10.727 -16.15,-24.902 -16.14,-38.965 -0.01,-14.062 5.4,-28.238 16.14,-38.969 10.74,-10.746 24.93,-16.168 39,-16.152 14.07,-0.012 28.24,5.406 38.98,16.141 10.73,10.722 16.14,24.894 16.13,38.961 0.01,14.062 -5.4,28.246 -16.15,38.984 l 0.32,-0.317 -0.32,0.313 -8.58,-8.574"
             style="fill:#4abeea;fill-opacity:1;fill-rule:nonzero;stroke:none"
             id="path3376"
             inkscape:connector-curvature="0" /><path
             d="m 1444.18,375.129 -8.58,-8.582 c 14.45,-14.457 21.62,-33.277 21.63,-52.215 -0.01,-18.937 -7.19,-37.762 -21.63,-52.215 -14.44,-14.429 -33.28,-21.609 -52.22,-21.625 -18.93,0.016 -37.75,7.18 -52.2,21.625 -14.45,14.453 -21.61,33.266 -21.63,52.188 0.02,18.937 7.2,37.761 21.65,52.215 14.46,14.453 33.28,21.632 52.22,21.648 18.92,-0.016 37.72,-7.18 52.18,-21.621 l 8.58,8.582 8.58,8.582 c -19.13,19.129 -44.29,28.738 -69.34,28.727 -25.08,0.011 -50.26,-9.618 -69.38,-28.754 -19.14,-19.121 -28.77,-44.305 -28.76,-69.379 -0.01,-25.055 9.6,-50.223 28.74,-69.352 19.13,-19.137 44.3,-28.742 69.36,-28.73 25.08,-0.012 50.26,9.605 69.38,28.73 19.13,19.129 28.76,44.309 28.74,69.379 0.02,25.066 -9.6,50.246 -28.74,69.379 l -8.58,-8.582"
             style="fill:#4abeea;fill-opacity:1;fill-rule:nonzero;stroke:none"
             id="path3378"
             inkscape:connector-curvature="0" /><path
             d="m 1474.57,405.523 -8.58,-8.582 c 22.85,-22.851 34.22,-52.664 34.23,-82.589 -0.01,-29.942 -11.4,-59.778 -34.23,-82.625 -22.84,-22.832 -52.67,-34.207 -82.61,-34.219 -29.92,0.012 -59.74,11.375 -82.59,34.219 -22.84,22.839 -34.2,52.644 -34.22,82.566 0.02,29.945 11.4,59.781 34.24,82.637 22.84,22.832 52.67,34.211 82.61,34.222 29.92,-0.011 59.73,-11.371 82.57,-34.211 l 0,0 8.58,8.582 8.58,8.579 c -27.51,27.535 -63.68,41.336 -99.73,41.324 -36.07,0.012 -72.25,-13.813 -99.77,-41.336 -27.54,-27.527 -41.36,-63.719 -41.35,-99.797 -0.01,-36.051 13.79,-72.219 41.33,-99.73 27.52,-27.536 63.7,-41.34 99.75,-41.329 36.07,-0.011 72.25,13.809 99.77,41.329 27.53,27.527 41.35,63.71 41.34,99.789 0.02,36.054 -13.79,72.23 -41.34,99.753 l 0.45,-0.449 -0.45,0.446 -8.58,-8.579"
             style="fill:#4abeea;fill-opacity:1;fill-rule:nonzero;stroke:none"
             id="path3380"
             inkscape:connector-curvature="0" /><path
             d="m 1395.06,317.23 c 1.37,-8.496 -4.38,-16.41 -12.83,-17.746 -8.44,-1.359 -16.37,4.414 -17.72,12.797 -1.37,8.465 4.4,16.41 12.83,17.735 8.44,1.375 16.37,-4.375 17.72,-12.786"
             style="fill:#45beed;fill-opacity:1;fill-rule:nonzero;stroke:none"
             id="path3382"
             inkscape:connector-curvature="0" /></g></g></g></g></svg>